<svg viewBox="0 0 269 75" fill="none" xmlns="http://www.w3.org/2000/svg">
<path d="M38.0572 12.6338H52.717V15.3759H46.9527V30.7906H43.7831V15.3759H38.0444V12.6338H38.0572ZM52.0907 17.6439H54.8002V20.181H54.8514C54.9408 19.8222 55.107 19.4762 55.3498 19.1431C55.5927 18.8099 55.8866 18.4896 56.2317 18.2205C56.5768 17.9386 56.9602 17.7208 57.382 17.5414C57.8038 17.3748 58.2383 17.2851 58.6729 17.2851C59.0052 17.2851 59.248 17.2979 59.3758 17.3107C59.5036 17.3235 59.6314 17.3492 59.772 17.362V20.1553C59.5675 20.1169 59.363 20.0913 59.1458 20.0656C58.9285 20.04 58.724 20.0272 58.5195 20.0272C58.0338 20.0272 57.5737 20.1297 57.1392 20.3219C56.7046 20.5141 56.334 20.8088 56.0144 21.1804C55.6949 21.5648 55.4393 22.0261 55.2476 22.5899C55.0559 23.1537 54.9664 23.7944 54.9664 24.5248V30.7778H52.0779V17.6439H52.0907ZM73.0514 30.7906H70.2141V28.9582H70.1629C69.8051 29.6245 69.2811 30.1499 68.5781 30.5471C67.8751 30.9443 67.1594 31.1494 66.4309 31.1494C64.7055 31.1494 63.4529 30.7265 62.6861 29.868C61.9192 29.0095 61.5358 27.7153 61.5358 25.9855V17.6439H64.4243V25.7036C64.4243 26.8568 64.6416 27.6769 65.0889 28.151C65.5235 28.6251 66.1497 28.8685 66.9421 28.8685C67.5556 28.8685 68.0541 28.7788 68.4631 28.5866C68.8721 28.3944 69.2044 28.151 69.4472 27.8306C69.7028 27.5231 69.8818 27.1387 69.9968 26.7031C70.1118 26.2674 70.1629 25.7933 70.1629 25.2808V17.6567H73.0514V30.7906ZM77.9721 26.5749C78.0616 27.4206 78.3811 28.01 78.9307 28.356C79.493 28.6892 80.1576 28.8685 80.9373 28.8685C81.2057 28.8685 81.5124 28.8429 81.8575 28.8045C82.2026 28.766 82.5349 28.6763 82.8288 28.561C83.1356 28.4457 83.3784 28.2663 83.5829 28.0357C83.7746 27.805 83.8641 27.5103 83.8513 27.1387C83.8385 26.7671 83.6979 26.4596 83.4423 26.229C83.1867 25.9855 82.8672 25.8061 82.471 25.6523C82.0748 25.5114 81.6274 25.3833 81.1162 25.2808C80.605 25.1782 80.0937 25.0629 79.5697 24.9476C79.0329 24.8323 78.5089 24.6785 78.0104 24.5119C77.512 24.3454 77.0646 24.1147 76.6684 23.82C76.2722 23.5381 75.9527 23.1665 75.7226 22.718C75.4798 22.2696 75.3648 21.7186 75.3648 21.0523C75.3648 20.3347 75.5437 19.7453 75.8888 19.2584C76.2339 18.7715 76.6812 18.3871 77.2052 18.0924C77.742 17.7976 78.33 17.5926 78.9818 17.4645C79.6336 17.3492 80.2599 17.2851 80.8478 17.2851C81.5252 17.2851 82.177 17.362 82.7905 17.5029C83.404 17.6439 83.9664 17.8745 84.4648 18.2077C84.9633 18.528 85.3723 18.9509 85.7046 19.4634C86.0369 19.9759 86.2414 20.6038 86.3308 21.3342H83.3145C83.1739 20.6423 82.8672 20.1682 82.3687 19.9375C81.8703 19.6941 81.2951 19.5787 80.6561 19.5787C80.4516 19.5787 80.2088 19.5915 79.9276 19.63C79.6464 19.6684 79.3908 19.7325 79.1352 19.8222C78.8923 19.9119 78.6878 20.0528 78.5089 20.2322C78.3427 20.4116 78.2533 20.6423 78.2533 20.937C78.2533 21.2957 78.3811 21.5776 78.6239 21.7955C78.8668 22.0133 79.1863 22.1927 79.5825 22.3465C79.9787 22.4874 80.426 22.6155 80.9373 22.718C81.4485 22.8206 81.9725 22.9359 82.5093 23.0512C83.0333 23.1665 83.5446 23.3203 84.0558 23.4869C84.5671 23.6534 85.0144 23.8841 85.4106 24.1788C85.8068 24.4735 86.1263 24.8323 86.3692 25.2679C86.612 25.7036 86.7398 26.2546 86.7398 26.8953C86.7398 27.6769 86.5609 28.3304 86.203 28.8814C85.8452 29.4195 85.385 29.868 84.8227 30.2012C84.2603 30.5343 83.6213 30.7906 82.9311 30.9443C82.2409 31.0981 81.5508 31.175 80.8734 31.175C80.0426 31.175 79.2757 31.0853 78.5728 30.8931C77.8698 30.7009 77.2564 30.419 76.7451 30.0474C76.2339 29.663 75.8249 29.1889 75.5309 28.6251C75.237 28.0613 75.0836 27.3822 75.058 26.6005H77.9721V26.5749ZM87.5067 17.6439H89.6922V13.6973H92.5807V17.6439H95.188V19.8094H92.5807V26.8312C92.5807 27.1387 92.5935 27.395 92.619 27.6256C92.6446 27.8435 92.7085 28.0357 92.798 28.1894C92.8875 28.3432 93.028 28.4585 93.2198 28.5354C93.4115 28.6123 93.6543 28.6507 93.9866 28.6507C94.1911 28.6507 94.3956 28.6507 94.6001 28.6379C94.8046 28.6251 95.0091 28.5995 95.2136 28.5482V30.7906C94.8941 30.829 94.5745 30.8546 94.2806 30.8931C93.9738 30.9315 93.6671 30.9443 93.3476 30.9443C92.5807 30.9443 91.9672 30.8675 91.5071 30.7265C91.047 30.5856 90.6763 30.3677 90.4207 30.0858C90.1523 29.8039 89.9862 29.458 89.8839 29.0351C89.7945 28.6123 89.7306 28.1254 89.7178 27.5872V19.835H87.5322V17.6439H87.5067ZM97.233 17.6439H99.9681V19.425H100.019C100.428 18.6562 100.991 18.118 101.719 17.7848C102.448 17.4517 103.227 17.2851 104.084 17.2851C105.119 17.2851 106.013 17.4645 106.78 17.8361C107.547 18.1949 108.186 18.6946 108.697 19.3353C109.209 19.9759 109.579 20.7191 109.835 21.5648C110.091 22.4105 110.218 23.3203 110.218 24.2813C110.218 25.1654 110.103 26.0239 109.873 26.844C109.643 27.6769 109.298 28.4073 108.838 29.0479C108.378 29.6886 107.79 30.1883 107.074 30.5727C106.359 30.9572 105.528 31.1494 104.556 31.1494C104.135 31.1494 103.713 31.1109 103.291 31.034C102.869 30.9572 102.46 30.829 102.077 30.6624C101.694 30.4959 101.323 30.278 101.003 30.0089C100.671 29.7399 100.403 29.4323 100.173 29.0864H100.121V35.6469H97.233V17.6439ZM107.33 24.23C107.33 23.6406 107.253 23.064 107.1 22.5002C106.946 21.9364 106.716 21.4495 106.41 21.0138C106.103 20.5782 105.72 20.2322 105.272 19.9759C104.812 19.7197 104.288 19.5787 103.7 19.5787C102.486 19.5787 101.566 20.0016 100.952 20.8473C100.339 21.693 100.032 22.8206 100.032 24.23C100.032 24.8963 100.109 25.5114 100.275 26.0752C100.441 26.639 100.671 27.1259 101.003 27.5359C101.323 27.946 101.706 28.2663 102.154 28.497C102.601 28.7404 103.125 28.8557 103.713 28.8557C104.378 28.8557 104.927 28.7148 105.387 28.4457C105.847 28.1766 106.218 27.8178 106.512 27.395C106.806 26.9593 107.023 26.4724 107.151 25.9214C107.266 25.3704 107.33 24.8067 107.33 24.23ZM112.43 12.6338H115.318V15.3759H112.43V12.6338ZM112.43 17.6439H115.318V30.7906H112.43V17.6439ZM117.9 12.6338H120.788V30.7906H117.9V12.6338ZM129.645 31.1494C128.597 31.1494 127.664 30.97 126.846 30.624C126.028 30.278 125.338 29.7911 124.763 29.1889C124.201 28.5738 123.766 27.8435 123.472 26.9978C123.178 26.1521 123.025 25.2167 123.025 24.2044C123.025 23.205 123.178 22.2824 123.472 21.4367C123.766 20.591 124.201 19.8606 124.763 19.2456C125.325 18.6305 126.028 18.1564 126.846 17.8105C127.664 17.4645 128.597 17.2851 129.645 17.2851C130.693 17.2851 131.626 17.4645 132.444 17.8105C133.262 18.1564 133.953 18.6433 134.528 19.2456C135.09 19.8606 135.525 20.591 135.819 21.4367C136.113 22.2824 136.266 23.205 136.266 24.2044C136.266 25.2167 136.113 26.1521 135.819 26.9978C135.525 27.8435 135.09 28.5738 134.528 29.1889C133.965 29.8039 133.262 30.278 132.444 30.624C131.626 30.97 130.693 31.1494 129.645 31.1494ZM129.645 28.8557C130.284 28.8557 130.847 28.7148 131.32 28.4457C131.793 28.1766 132.176 27.8178 132.483 27.3822C132.79 26.9465 133.007 26.4468 133.16 25.8958C133.301 25.3448 133.377 24.781 133.377 24.2044C133.377 23.6406 133.301 23.0896 133.16 22.5258C133.02 21.962 132.79 21.4751 132.483 21.0395C132.176 20.6038 131.793 20.2578 131.32 19.9888C130.847 19.7197 130.284 19.5787 129.645 19.5787C129.006 19.5787 128.444 19.7197 127.971 19.9888C127.498 20.2578 127.115 20.6166 126.808 21.0395C126.501 21.4751 126.284 21.962 126.131 22.5258C125.99 23.0896 125.913 23.6406 125.913 24.2044C125.913 24.781 125.99 25.3448 126.131 25.8958C126.271 26.4468 126.501 26.9465 126.808 27.3822C127.115 27.8178 127.498 28.1766 127.971 28.4457C128.444 28.7276 129.006 28.8557 129.645 28.8557ZM137.109 17.6439H139.295V13.6973H142.184V17.6439H144.791V19.8094H142.184V26.8312C142.184 27.1387 142.196 27.395 142.222 27.6256C142.247 27.8435 142.311 28.0357 142.401 28.1894C142.49 28.3432 142.631 28.4585 142.823 28.5354C143.014 28.6123 143.257 28.6507 143.589 28.6507C143.794 28.6507 143.998 28.6507 144.203 28.6379C144.407 28.6251 144.612 28.5995 144.816 28.5482V30.7906C144.497 30.829 144.177 30.8546 143.883 30.8931C143.577 30.9315 143.27 30.9443 142.95 30.9443C142.184 30.9443 141.57 30.8675 141.11 30.7265C140.65 30.5856 140.279 30.3677 140.024 30.0858C139.755 29.8039 139.589 29.458 139.487 29.0351C139.397 28.6123 139.333 28.1254 139.321 27.5872V19.835H137.135V17.6439H137.109Z" fill="black"/>
<path d="M34.6747 12.6341H21.4336L17.3437 0L13.2411 12.6341L0 12.6213L10.7232 20.4376L6.62053 33.0589L17.3437 25.2555L28.0542 33.0589L23.9643 20.4376L34.6747 12.6341Z" fill="#00B67A"/>
<path d="M24.8811 23.2941L23.9609 20.4366L17.3403 25.2545L24.8811 23.2941Z" fill="#005128"/>
<path d="M158.203 10.8586H178.891V31.5467H158.203V10.8586Z" fill="#00B67A"/>
<path d="M167.964 24.7253L171.12 23.9201L172.45 27.8706L167.964 24.7253ZM175.24 19.6174H169.66L167.938 14.5094L166.217 19.6174H160.637L165.148 22.7878L163.427 27.8958L167.938 24.7505L170.729 22.7878L175.24 19.6174Z" fill="white"/>
<path d="M180.108 10.8586H199.579V31.5467H180.108V10.8586Z" fill="#00B67A"/>
<path d="M189.87 24.7253L193.025 23.9201L194.355 27.8706L189.87 24.7253ZM197.145 19.6174H191.565L189.844 14.5094L188.123 19.6174H182.542L187.053 22.7878L185.332 27.8958L189.844 24.7505L192.634 22.7878L197.145 19.6174Z" fill="white"/>
<path d="M202.013 10.8586H221.484V31.5467H202.013V10.8586Z" fill="#00B67A"/>
<path d="M211.775 24.7253L214.93 23.9201L216.26 27.8706L211.775 24.7253ZM219.05 19.6174H213.47L211.748 14.5094L210.027 19.6174H204.447L208.958 22.7878L207.237 27.8958L211.748 24.7505L214.539 22.7878L219.05 19.6174Z" fill="white"/>
<path d="M222.701 10.8586H243.389V31.5467H222.701V10.8586Z" fill="#00B67A"/>
<path d="M233.68 24.7253L236.835 23.9201L238.165 27.8706L233.68 24.7253ZM240.955 19.6174H235.375L233.654 14.5094L231.933 19.6174H226.352L230.863 22.7878L229.142 27.8958L233.654 24.7505L236.444 22.7878L240.955 19.6174Z" fill="white"/>
<path d="M244.606 10.8586H265.294V31.5467H244.606V10.8586Z" fill="#00B67A"/>
<path d="M254.368 24.7253L257.523 23.9201L258.853 27.8706L254.368 24.7253ZM261.643 19.6174H256.063L254.342 14.5094L252.621 19.6174H247.04L251.551 22.7878L249.83 27.8958L254.342 24.7505L257.132 22.7878L261.643 19.6174Z" fill="white"/>
<path d="M0.990234 68V56.9094H4.875C6.2207 56.9094 7.24141 57.1684 7.93711 57.6863C8.63281 58.1992 8.98066 58.9533 8.98066 59.9486C8.98066 60.492 8.84102 60.9719 8.56172 61.3883C8.28242 61.7996 7.89395 62.1018 7.39629 62.2947C7.96504 62.4369 8.41191 62.7238 8.73691 63.1555C9.06699 63.5871 9.23203 64.1152 9.23203 64.7398C9.23203 65.8062 8.8918 66.6137 8.21133 67.1621C7.53086 67.7105 6.56094 67.9898 5.30156 68H0.990234ZM3.27539 63.1707V66.1643H5.23301C5.77129 66.1643 6.19023 66.0373 6.48984 65.7834C6.79453 65.5244 6.94688 65.1689 6.94688 64.717C6.94688 63.7014 6.42129 63.1859 5.37012 63.1707H3.27539ZM3.27539 61.5559H4.96641C6.11914 61.5355 6.69551 61.076 6.69551 60.1771C6.69551 59.6744 6.54824 59.3139 6.25371 59.0955C5.96426 58.8721 5.50469 58.7604 4.875 58.7604H3.27539V61.5559ZM15.5848 68C15.4832 67.802 15.4096 67.5557 15.3639 67.2611C14.8307 67.8553 14.1375 68.1523 13.2844 68.1523C12.477 68.1523 11.8066 67.9187 11.2734 67.4516C10.7453 66.9844 10.4813 66.3953 10.4813 65.6844C10.4813 64.8109 10.8037 64.1406 11.4486 63.6734C12.0986 63.2062 13.0355 62.9701 14.2594 62.965H15.2725V62.4928C15.2725 62.1119 15.1734 61.8072 14.9754 61.5787C14.7824 61.3502 14.4752 61.2359 14.0537 61.2359C13.683 61.2359 13.391 61.3248 13.1777 61.5025C12.9695 61.6803 12.8654 61.924 12.8654 62.2338H10.6641C10.6641 61.7564 10.8113 61.3146 11.1059 60.9084C11.4004 60.5021 11.8168 60.1848 12.3551 59.9562C12.8934 59.7227 13.4977 59.6059 14.168 59.6059C15.1836 59.6059 15.9885 59.8623 16.5826 60.3752C17.1818 60.883 17.4814 61.599 17.4814 62.5232V66.0957C17.4865 66.8777 17.5957 67.4693 17.809 67.8705V68H15.5848ZM13.7643 66.4689C14.0893 66.4689 14.3889 66.3979 14.6631 66.2557C14.9373 66.1084 15.1404 65.9129 15.2725 65.6691V64.2523H14.4498C13.3479 64.2523 12.7613 64.6332 12.6902 65.3949L12.6826 65.5244C12.6826 65.7986 12.7791 66.0246 12.9721 66.2023C13.165 66.3801 13.4291 66.4689 13.7643 66.4689ZM23.6361 65.7225C23.6361 65.4533 23.5016 65.2426 23.2324 65.0902C22.9684 64.9328 22.5418 64.7932 21.9527 64.6713C19.9926 64.26 19.0125 63.4271 19.0125 62.1729C19.0125 61.4416 19.3146 60.8322 19.9189 60.3447C20.5283 59.8521 21.323 59.6059 22.3031 59.6059C23.3492 59.6059 24.1846 59.8521 24.8092 60.3447C25.4389 60.8373 25.7537 61.4771 25.7537 62.2643H23.5523C23.5523 61.9494 23.4508 61.6904 23.2477 61.4873C23.0445 61.2791 22.7271 61.175 22.2955 61.175C21.9248 61.175 21.6379 61.2588 21.4348 61.4264C21.2316 61.5939 21.1301 61.8072 21.1301 62.0662C21.1301 62.31 21.2443 62.508 21.4729 62.6604C21.7064 62.8076 22.0975 62.9371 22.6459 63.0488C23.1943 63.1555 23.6564 63.2773 24.0322 63.4145C25.1951 63.841 25.7766 64.5799 25.7766 65.6311C25.7766 66.3826 25.4541 66.992 24.8092 67.4592C24.1643 67.9213 23.3314 68.1523 22.3107 68.1523C21.6201 68.1523 21.0057 68.0305 20.4674 67.7867C19.9342 67.5379 19.5152 67.2002 19.2105 66.7736C18.9059 66.342 18.7535 65.8773 18.7535 65.3797H20.8406C20.8609 65.7707 21.0057 66.0703 21.2748 66.2785C21.5439 66.4867 21.9045 66.5908 22.3564 66.5908C22.7779 66.5908 23.0953 66.5121 23.3086 66.3547C23.527 66.1922 23.6361 65.9814 23.6361 65.7225ZM30.9943 68.1523C29.7857 68.1523 28.8006 67.7816 28.0389 67.0402C27.2822 66.2988 26.9039 65.3111 26.9039 64.0771V63.8639C26.9039 63.0361 27.0639 62.2973 27.3838 61.6473C27.7037 60.9922 28.1557 60.4895 28.7396 60.1391C29.3287 59.7836 29.999 59.6059 30.7506 59.6059C31.8779 59.6059 32.7641 59.9613 33.409 60.6723C34.059 61.3832 34.384 62.3912 34.384 63.6963V64.5951H29.1357C29.2068 65.1334 29.4201 65.565 29.7756 65.89C30.1361 66.215 30.5906 66.3775 31.1391 66.3775C31.9871 66.3775 32.6498 66.0703 33.1271 65.4559L34.2088 66.667C33.8787 67.1342 33.4318 67.4998 32.8682 67.7639C32.3045 68.0229 31.6799 68.1523 30.9943 68.1523ZM30.743 61.3883C30.3063 61.3883 29.9508 61.5355 29.6766 61.8301C29.4074 62.1246 29.2348 62.5461 29.1586 63.0945H32.2207V62.9193C32.2105 62.4318 32.0785 62.0561 31.8246 61.792C31.5707 61.5229 31.2102 61.3883 30.743 61.3883ZM35.298 63.8182C35.298 62.5334 35.585 61.5102 36.1588 60.7484C36.7377 59.9867 37.5273 59.6059 38.5277 59.6059C39.3301 59.6059 39.9928 59.9055 40.5158 60.5047V56.3H42.7248V68H40.7367L40.6301 67.124C40.0816 67.8096 39.3758 68.1523 38.5125 68.1523C37.5426 68.1523 36.7631 67.7715 36.174 67.0098C35.59 66.243 35.298 65.1791 35.298 63.8182ZM37.4994 63.9781C37.4994 64.75 37.634 65.3416 37.9031 65.7529C38.1723 66.1643 38.5633 66.3699 39.0762 66.3699C39.7566 66.3699 40.2365 66.083 40.5158 65.5092V62.2566C40.2416 61.6828 39.7668 61.3959 39.0914 61.3959C38.0301 61.3959 37.4994 62.2566 37.4994 63.9781ZM47.973 63.8029C47.973 62.9854 48.1305 62.2566 48.4453 61.6168C48.7602 60.977 49.2121 60.4818 49.8012 60.1314C50.3953 59.7811 51.0834 59.6059 51.8654 59.6059C52.9775 59.6059 53.884 59.9461 54.5848 60.6266C55.2906 61.307 55.6842 62.2312 55.7654 63.3992L55.7807 63.9629C55.7807 65.2273 55.4277 66.243 54.7219 67.0098C54.016 67.7715 53.0689 68.1523 51.8807 68.1523C50.6924 68.1523 49.7428 67.7715 49.0318 67.0098C48.326 66.248 47.973 65.2121 47.973 63.902V63.8029ZM50.1744 63.9629C50.1744 64.7449 50.3217 65.3441 50.6162 65.7605C50.9107 66.1719 51.3322 66.3775 51.8807 66.3775C52.4139 66.3775 52.8303 66.1744 53.1299 65.7682C53.4295 65.3568 53.5793 64.7018 53.5793 63.8029C53.5793 63.0361 53.4295 62.442 53.1299 62.0205C52.8303 61.599 52.4088 61.3883 51.8654 61.3883C51.3272 61.3883 50.9107 61.599 50.6162 62.0205C50.3217 62.4369 50.1744 63.0844 50.1744 63.9629ZM59.1627 59.7582L59.2313 60.7104C59.8203 59.974 60.61 59.6059 61.6002 59.6059C62.4736 59.6059 63.1236 59.8623 63.5502 60.3752C63.9768 60.8881 64.1951 61.6549 64.2053 62.6756V68H62.0039V62.7289C62.0039 62.2617 61.9023 61.924 61.6992 61.7158C61.4961 61.5025 61.1584 61.3959 60.6861 61.3959C60.0666 61.3959 59.602 61.66 59.2922 62.1881V68H57.0908V59.7582H59.1627ZM117.739 61.8225C117.439 61.7818 117.175 61.7615 116.947 61.7615C116.114 61.7615 115.568 62.0434 115.309 62.607V68H113.108V59.7582H115.187L115.248 60.7408C115.69 59.9842 116.302 59.6059 117.084 59.6059C117.328 59.6059 117.556 59.6389 117.769 59.7049L117.739 61.8225ZM122.446 68.1523C121.238 68.1523 120.253 67.7816 119.491 67.0402C118.734 66.2988 118.356 65.3111 118.356 64.0771V63.8639C118.356 63.0361 118.516 62.2973 118.836 61.6473C119.156 60.9922 119.608 60.4895 120.192 60.1391C120.781 59.7836 121.451 59.6059 122.203 59.6059C123.33 59.6059 124.216 59.9613 124.861 60.6723C125.511 61.3832 125.836 62.3912 125.836 63.6963V64.5951H120.588C120.659 65.1334 120.872 65.565 121.228 65.89C121.588 66.215 122.043 66.3775 122.591 66.3775C123.439 66.3775 124.102 66.0703 124.579 65.4559L125.661 66.667C125.331 67.1342 124.884 67.4998 124.32 67.7639C123.756 68.0229 123.132 68.1523 122.446 68.1523ZM122.195 61.3883C121.758 61.3883 121.403 61.5355 121.129 61.8301C120.859 62.1246 120.687 62.5461 120.611 63.0945H123.673V62.9193C123.663 62.4318 123.53 62.0561 123.277 61.792C123.023 61.5229 122.662 61.3883 122.195 61.3883ZM130.071 65.3111L131.602 59.7582H133.903L131.122 68H129.02L126.24 59.7582H128.54L130.071 65.3111ZM137.201 68H134.992V59.7582H137.201V68ZM134.862 57.6254C134.862 57.2953 134.971 57.0236 135.19 56.8104C135.413 56.5971 135.715 56.4904 136.096 56.4904C136.472 56.4904 136.772 56.5971 136.995 56.8104C137.219 57.0236 137.33 57.2953 137.33 57.6254C137.33 57.9605 137.216 58.2348 136.987 58.448C136.764 58.6613 136.467 58.768 136.096 58.768C135.726 58.768 135.426 58.6613 135.197 58.448C134.974 58.2348 134.862 57.9605 134.862 57.6254ZM142.815 68.1523C141.606 68.1523 140.621 67.7816 139.859 67.0402C139.103 66.2988 138.724 65.3111 138.724 64.0771V63.8639C138.724 63.0361 138.884 62.2973 139.204 61.6473C139.524 60.9922 139.976 60.4895 140.56 60.1391C141.149 59.7836 141.819 59.6059 142.571 59.6059C143.698 59.6059 144.584 59.9613 145.229 60.6723C145.879 61.3832 146.204 62.3912 146.204 63.6963V64.5951H140.956C141.027 65.1334 141.24 65.565 141.596 65.89C141.956 66.215 142.411 66.3775 142.959 66.3775C143.807 66.3775 144.47 66.0703 144.947 65.4559L146.029 66.667C145.699 67.1342 145.252 67.4998 144.688 67.7639C144.125 68.0229 143.5 68.1523 142.815 68.1523ZM142.563 61.3883C142.127 61.3883 141.771 61.5355 141.497 61.8301C141.228 62.1246 141.055 62.5461 140.979 63.0945H144.041V62.9193C144.031 62.4318 143.899 62.0561 143.645 61.792C143.391 61.5229 143.03 61.3883 142.563 61.3883ZM154.629 65.0064L155.711 59.7582H157.836L155.733 68H153.89L152.329 62.8127L150.767 68H148.931L146.829 59.7582H148.954L150.028 64.9988L151.536 59.7582H153.128L154.629 65.0064ZM163.396 65.7225C163.396 65.4533 163.262 65.2426 162.993 65.0902C162.729 64.9328 162.302 64.7932 161.713 64.6713C159.753 64.26 158.773 63.4271 158.773 62.1729C158.773 61.4416 159.075 60.8322 159.679 60.3447C160.288 59.8521 161.083 59.6059 162.063 59.6059C163.109 59.6059 163.945 59.8521 164.569 60.3447C165.199 60.8373 165.514 61.4771 165.514 62.2643H163.313C163.313 61.9494 163.211 61.6904 163.008 61.4873C162.805 61.2791 162.487 61.175 162.056 61.175C161.685 61.175 161.398 61.2588 161.195 61.4264C160.992 61.5939 160.89 61.8072 160.89 62.0662C160.89 62.31 161.004 62.508 161.233 62.6604C161.467 62.8076 161.858 62.9371 162.406 63.0488C162.954 63.1555 163.417 63.2773 163.792 63.4145C164.955 63.841 165.537 64.5799 165.537 65.6311C165.537 66.3826 165.214 66.992 164.569 67.4592C163.924 67.9213 163.092 68.1523 162.071 68.1523C161.38 68.1523 160.766 68.0305 160.228 67.7867C159.694 67.5379 159.275 67.2002 158.971 66.7736C158.666 66.342 158.514 65.8773 158.514 65.3797H160.601C160.621 65.7707 160.766 66.0703 161.035 66.2785C161.304 66.4867 161.665 66.5908 162.117 66.5908C162.538 66.5908 162.855 66.5121 163.069 66.3547C163.287 66.1922 163.396 65.9814 163.396 65.7225ZM174.814 62.2719C174.814 61.8707 174.944 61.5432 175.203 61.2893C175.462 61.0354 175.802 60.9084 176.224 60.9084C176.64 60.9084 176.978 61.0328 177.237 61.2816C177.496 61.5254 177.63 61.8428 177.64 62.2338V62.5385C177.64 62.9498 177.511 63.2773 177.252 63.5211C176.993 63.7648 176.653 63.8867 176.231 63.8867C175.805 63.8867 175.462 63.7623 175.203 63.5135C174.944 63.2646 174.814 62.9346 174.814 62.5232V62.2719ZM213.083 63.8029C213.083 62.9854 213.241 62.2566 213.555 61.6168C213.87 60.977 214.322 60.4818 214.911 60.1314C215.505 59.7811 216.194 59.6059 216.976 59.6059C218.088 59.6059 218.994 59.9461 219.695 60.6266C220.401 61.307 220.794 62.2312 220.876 63.3992L220.891 63.9629C220.891 65.2273 220.538 66.243 219.832 67.0098C219.126 67.7715 218.179 68.1523 216.991 68.1523C215.803 68.1523 214.853 67.7715 214.142 67.0098C213.436 66.248 213.083 65.2121 213.083 63.902V63.8029ZM215.285 63.9629C215.285 64.7449 215.432 65.3441 215.726 65.7605C216.021 66.1719 216.442 66.3775 216.991 66.3775C217.524 66.3775 217.94 66.1744 218.24 65.7682C218.54 65.3568 218.689 64.7018 218.689 63.8029C218.689 63.0361 218.54 62.442 218.24 62.0205C217.94 61.599 217.519 61.3883 216.976 61.3883C216.437 61.3883 216.021 61.599 215.726 62.0205C215.432 62.4369 215.285 63.0844 215.285 63.9629ZM227.183 67.1621C226.639 67.8223 225.888 68.1523 224.928 68.1523C224.044 68.1523 223.369 67.8984 222.902 67.3906C222.44 66.8828 222.204 66.1389 222.193 65.1588V59.7582H224.395V65.0826C224.395 65.9408 224.786 66.3699 225.568 66.3699C226.314 66.3699 226.827 66.1109 227.106 65.593V59.7582H229.315V68H227.244L227.183 67.1621ZM233.612 57.732V59.7582H235.021V61.373H233.612V65.4863C233.612 65.791 233.67 66.0094 233.787 66.1414C233.904 66.2734 234.127 66.3395 234.457 66.3395C234.701 66.3395 234.917 66.3217 235.105 66.2861V67.9543C234.673 68.0863 234.229 68.1523 233.771 68.1523C232.228 68.1523 231.441 67.3729 231.41 65.8139V61.373H230.207V59.7582H231.41V57.732H233.612ZM239.789 63.8029C239.789 62.9854 239.946 62.2566 240.261 61.6168C240.576 60.977 241.028 60.4818 241.617 60.1314C242.211 59.7811 242.899 59.6059 243.681 59.6059C244.794 59.6059 245.7 59.9461 246.401 60.6266C247.107 61.307 247.5 62.2312 247.581 63.3992L247.597 63.9629C247.597 65.2273 247.244 66.243 246.538 67.0098C245.832 67.7715 244.885 68.1523 243.697 68.1523C242.508 68.1523 241.559 67.7715 240.848 67.0098C240.142 66.248 239.789 65.2121 239.789 63.902V63.8029ZM241.99 63.9629C241.99 64.7449 242.138 65.3441 242.432 65.7605C242.727 66.1719 243.148 66.3775 243.697 66.3775C244.23 66.3775 244.646 66.1744 244.946 65.7682C245.246 65.3568 245.395 64.7018 245.395 63.8029C245.395 63.0361 245.246 62.442 244.946 62.0205C244.646 61.599 244.225 61.3883 243.681 61.3883C243.143 61.3883 242.727 61.599 242.432 62.0205C242.138 62.4369 241.99 63.0844 241.99 63.9629ZM249.554 68V61.373H248.328V59.7582H249.554V59.0574C249.554 58.1332 249.818 57.4172 250.346 56.9094C250.88 56.3965 251.624 56.14 252.578 56.14C252.883 56.14 253.256 56.1908 253.698 56.2924L253.675 57.9986C253.492 57.9529 253.269 57.9301 253.005 57.9301C252.177 57.9301 251.763 58.3186 251.763 59.0955V59.7582H253.401V61.373H251.763V68H249.554ZM258.664 62.5461L259.304 56.9094H265.52V58.7451H261.11L260.835 61.1293C261.358 60.85 261.914 60.7104 262.504 60.7104C263.56 60.7104 264.388 61.0379 264.987 61.693C265.586 62.348 265.886 63.2646 265.886 64.4428C265.886 65.1588 265.733 65.8012 265.429 66.3699C265.129 66.9336 264.697 67.3729 264.134 67.6877C263.57 67.9975 262.905 68.1523 262.138 68.1523C261.468 68.1523 260.846 68.0178 260.272 67.7486C259.698 67.4744 259.243 67.091 258.908 66.5984C258.578 66.1059 258.403 65.5447 258.383 64.915H260.561C260.607 65.3771 260.767 65.7377 261.041 65.9967C261.32 66.2506 261.683 66.3775 262.13 66.3775C262.628 66.3775 263.011 66.1998 263.28 65.8443C263.55 65.4838 263.684 64.976 263.684 64.3209C263.684 63.6912 263.529 63.2088 263.22 62.8736C262.91 62.5385 262.471 62.3709 261.902 62.3709C261.379 62.3709 260.955 62.508 260.63 62.7822L260.416 62.9803L258.664 62.5461Z" fill="black"/>
<path d="M71.8225 61.4797H72.9955C73.5541 61.4797 73.968 61.34 74.2371 61.0607C74.5063 60.7814 74.6408 60.4107 74.6408 59.9486C74.6408 59.5018 74.5063 59.1539 74.2371 58.9051C73.9731 58.6562 73.6074 58.5318 73.1402 58.5318C72.7188 58.5318 72.3658 58.6486 72.0814 58.8822C71.7971 59.1107 71.6549 59.4104 71.6549 59.7811H69.4535C69.4535 59.2021 69.6084 58.6842 69.9182 58.2271C70.233 57.765 70.6697 57.4045 71.2283 57.1455C71.792 56.8865 72.4115 56.757 73.0869 56.757C74.26 56.757 75.1791 57.0389 75.8443 57.6025C76.5096 58.1611 76.8422 58.933 76.8422 59.9182C76.8422 60.426 76.6873 60.8932 76.3775 61.3197C76.0678 61.7463 75.6615 62.0738 75.1588 62.3023C75.7834 62.5258 76.2481 62.8609 76.5527 63.3078C76.8625 63.7547 77.0174 64.2828 77.0174 64.8922C77.0174 65.8773 76.6568 66.667 75.9357 67.2611C75.2197 67.8553 74.2701 68.1523 73.0869 68.1523C71.9799 68.1523 71.0734 67.8604 70.3676 67.2764C69.6668 66.6924 69.3164 65.9205 69.3164 64.9607H71.5178C71.5178 65.3771 71.6727 65.7174 71.9824 65.9814C72.2973 66.2455 72.6832 66.3775 73.1402 66.3775C73.6633 66.3775 74.0721 66.2404 74.3666 65.9662C74.6662 65.6869 74.816 65.3187 74.816 64.8617C74.816 63.7547 74.2066 63.2012 72.9879 63.2012H71.8225V61.4797ZM79.2035 70.7803L78.0533 70.1785L78.3275 69.6834C78.6678 69.0639 78.843 68.4469 78.8531 67.8324V66.1262H80.7117L80.7041 67.6496C80.699 68.2133 80.5568 68.782 80.2775 69.3559C79.9982 69.9297 79.6402 70.4045 79.2035 70.7803ZM89.5781 59.8572C89.5781 60.3955 89.4436 60.8729 89.1744 61.2893C88.9053 61.7057 88.5346 62.0383 88.0623 62.2871C88.6006 62.5461 89.0272 62.9041 89.342 63.3611C89.6568 63.8131 89.8143 64.3463 89.8143 64.9607C89.8143 65.9459 89.4791 66.7254 88.8088 67.2992C88.1385 67.868 87.227 68.1523 86.0742 68.1523C84.9215 68.1523 84.0074 67.8654 83.332 67.2916C82.6566 66.7178 82.3189 65.9408 82.3189 64.9607C82.3189 64.3463 82.4764 63.8105 82.7912 63.3535C83.1061 62.8965 83.5301 62.541 84.0633 62.2871C83.591 62.0383 83.2203 61.7057 82.9512 61.2893C82.6871 60.8729 82.5551 60.3955 82.5551 59.8572C82.5551 58.9127 82.8699 58.1611 83.4996 57.6025C84.1293 57.0389 84.985 56.757 86.0666 56.757C87.1432 56.757 87.9963 57.0363 88.626 57.5949C89.2607 58.1484 89.5781 58.9025 89.5781 59.8572ZM87.6053 64.8008C87.6053 64.3184 87.4656 63.9324 87.1863 63.643C86.907 63.3535 86.5313 63.2088 86.059 63.2088C85.5918 63.2088 85.2186 63.3535 84.9393 63.643C84.66 63.9273 84.5203 64.3133 84.5203 64.8008C84.5203 65.273 84.6574 65.6539 84.9316 65.9434C85.2059 66.2328 85.5867 66.3775 86.0742 66.3775C86.5516 66.3775 86.9248 66.2379 87.1939 65.9586C87.4682 65.6793 87.6053 65.2934 87.6053 64.8008ZM87.3768 59.9639C87.3768 59.5322 87.2625 59.1869 87.034 58.9279C86.8055 58.6639 86.483 58.5318 86.0666 58.5318C85.6553 58.5318 85.3354 58.6588 85.1068 58.9127C84.8783 59.1666 84.7641 59.517 84.7641 59.9639C84.7641 60.4057 84.8783 60.7611 85.1068 61.0303C85.3354 61.2994 85.6578 61.434 86.0742 61.434C86.4906 61.434 86.8105 61.2994 87.034 61.0303C87.2625 60.7611 87.3768 60.4057 87.3768 59.9639ZM98.5359 59.8572C98.5359 60.3955 98.4014 60.8729 98.1322 61.2893C97.8631 61.7057 97.4924 62.0383 97.0201 62.2871C97.5584 62.5461 97.985 62.9041 98.2998 63.3611C98.6146 63.8131 98.7721 64.3463 98.7721 64.9607C98.7721 65.9459 98.4369 66.7254 97.7666 67.2992C97.0963 67.868 96.1848 68.1523 95.032 68.1523C93.8793 68.1523 92.9652 67.8654 92.2898 67.2916C91.6145 66.7178 91.2768 65.9408 91.2768 64.9607C91.2768 64.3463 91.4342 63.8105 91.749 63.3535C92.0639 62.8965 92.4879 62.541 93.0211 62.2871C92.5488 62.0383 92.1781 61.7057 91.909 61.2893C91.6449 60.8729 91.5129 60.3955 91.5129 59.8572C91.5129 58.9127 91.8277 58.1611 92.4574 57.6025C93.0871 57.0389 93.9428 56.757 95.0244 56.757C96.101 56.757 96.9541 57.0363 97.5838 57.5949C98.2186 58.1484 98.5359 58.9025 98.5359 59.8572ZM96.5631 64.8008C96.5631 64.3184 96.4234 63.9324 96.1441 63.643C95.8648 63.3535 95.4891 63.2088 95.0168 63.2088C94.5496 63.2088 94.1764 63.3535 93.8971 63.643C93.6178 63.9273 93.4781 64.3133 93.4781 64.8008C93.4781 65.273 93.6152 65.6539 93.8895 65.9434C94.1637 66.2328 94.5445 66.3775 95.032 66.3775C95.5094 66.3775 95.8826 66.2379 96.1518 65.9586C96.426 65.6793 96.5631 65.2934 96.5631 64.8008ZM96.3346 59.9639C96.3346 59.5322 96.2203 59.1869 95.9918 58.9279C95.7633 58.6639 95.4408 58.5318 95.0244 58.5318C94.6131 58.5318 94.2932 58.6588 94.0646 58.9127C93.8361 59.1666 93.7219 59.517 93.7219 59.9639C93.7219 60.4057 93.8361 60.7611 94.0646 61.0303C94.2932 61.2994 94.6156 61.434 95.032 61.434C95.4484 61.434 95.7684 61.2994 95.9918 61.0303C96.2203 60.7611 96.3346 60.4057 96.3346 59.9639ZM107.494 59.8572C107.494 60.3955 107.359 60.8729 107.09 61.2893C106.821 61.7057 106.45 62.0383 105.978 62.2871C106.516 62.5461 106.943 62.9041 107.258 63.3611C107.572 63.8131 107.73 64.3463 107.73 64.9607C107.73 65.9459 107.395 66.7254 106.724 67.2992C106.054 67.868 105.143 68.1523 103.99 68.1523C102.837 68.1523 101.923 67.8654 101.248 67.2916C100.572 66.7178 100.235 65.9408 100.235 64.9607C100.235 64.3463 100.392 63.8105 100.707 63.3535C101.022 62.8965 101.446 62.541 101.979 62.2871C101.507 62.0383 101.136 61.7057 100.867 61.2893C100.603 60.8729 100.471 60.3955 100.471 59.8572C100.471 58.9127 100.786 58.1611 101.415 57.6025C102.045 57.0389 102.901 56.757 103.982 56.757C105.059 56.757 105.912 57.0363 106.542 57.5949C107.176 58.1484 107.494 58.9025 107.494 59.8572ZM105.521 64.8008C105.521 64.3184 105.381 63.9324 105.102 63.643C104.823 63.3535 104.447 63.2088 103.975 63.2088C103.507 63.2088 103.134 63.3535 102.855 63.643C102.576 63.9273 102.436 64.3133 102.436 64.8008C102.436 65.273 102.573 65.6539 102.847 65.9434C103.121 66.2328 103.502 66.3775 103.99 66.3775C104.467 66.3775 104.84 66.2379 105.11 65.9586C105.384 65.6793 105.521 65.2934 105.521 64.8008ZM105.292 59.9639C105.292 59.5322 105.178 59.1869 104.95 58.9279C104.721 58.6639 104.399 58.5318 103.982 58.5318C103.571 58.5318 103.251 58.6588 103.022 58.9127C102.794 59.1666 102.68 59.517 102.68 59.9639C102.68 60.4057 102.794 60.7611 103.022 61.0303C103.251 61.2994 103.573 61.434 103.99 61.434C104.406 61.434 104.726 61.2994 104.95 61.0303C105.178 60.7611 105.292 60.4057 105.292 59.9639ZM193.598 63.8258H194.855V65.6006H193.598V68H191.397V65.6006H186.85L186.751 64.2143L191.374 56.9094H193.598V63.8258ZM188.944 63.8258H191.397V59.9105L191.252 60.1619L188.944 63.8258ZM196.249 66.9184C196.249 66.568 196.366 66.2836 196.6 66.0652C196.838 65.8469 197.135 65.7377 197.491 65.7377C197.851 65.7377 198.148 65.8469 198.382 66.0652C198.621 66.2836 198.74 66.568 198.74 66.9184C198.74 67.2637 198.623 67.5455 198.39 67.7639C198.156 67.9771 197.856 68.0838 197.491 68.0838C197.13 68.0838 196.833 67.9771 196.6 67.7639C196.366 67.5455 196.249 67.2637 196.249 66.9184ZM207.812 59.8572C207.812 60.3955 207.678 60.8729 207.408 61.2893C207.139 61.7057 206.769 62.0383 206.296 62.2871C206.835 62.5461 207.261 62.9041 207.576 63.3611C207.891 63.8131 208.048 64.3463 208.048 64.9607C208.048 65.9459 207.713 66.7254 207.043 67.2992C206.372 67.868 205.461 68.1523 204.308 68.1523C203.155 68.1523 202.241 67.8654 201.566 67.2916C200.891 66.7178 200.553 65.9408 200.553 64.9607C200.553 64.3463 200.71 63.8105 201.025 63.3535C201.34 62.8965 201.764 62.541 202.297 62.2871C201.825 62.0383 201.454 61.7057 201.185 61.2893C200.921 60.8729 200.789 60.3955 200.789 59.8572C200.789 58.9127 201.104 58.1611 201.734 57.6025C202.363 57.0389 203.219 56.757 204.301 56.757C205.377 56.757 206.23 57.0363 206.86 57.5949C207.495 58.1484 207.812 58.9025 207.812 59.8572ZM205.839 64.8008C205.839 64.3184 205.7 63.9324 205.42 63.643C205.141 63.3535 204.765 63.2088 204.293 63.2088C203.826 63.2088 203.453 63.3535 203.173 63.643C202.894 63.9273 202.754 64.3133 202.754 64.8008C202.754 65.273 202.891 65.6539 203.166 65.9434C203.44 66.2328 203.821 66.3775 204.308 66.3775C204.786 66.3775 205.159 66.2379 205.428 65.9586C205.702 65.6793 205.839 65.2934 205.839 64.8008ZM205.611 59.9639C205.611 59.5322 205.496 59.1869 205.268 58.9279C205.039 58.6639 204.717 58.5318 204.301 58.5318C203.889 58.5318 203.569 58.6588 203.341 58.9127C203.112 59.1666 202.998 59.517 202.998 59.9639C202.998 60.4057 203.112 60.7611 203.341 61.0303C203.569 61.2994 203.892 61.434 204.308 61.434C204.725 61.434 205.045 61.2994 205.268 61.0303C205.496 60.7611 205.611 60.4057 205.611 59.9639Z" fill="#00B67A"/>
</svg>
