<svg viewBox="0 0 126 26" fill="none" xmlns="http://www.w3.org/2000/svg">
<path d="M43.5874 18.3041V21.1888H31.6365V18.3041H35.9292V6.76532H31.6365V3.88061H43.5874V6.76532H39.2947V18.3041H43.5874ZM23.2915 3.88061H19.9947L17.6251 17.583H17.5908L14.8434 4.87652C14.6717 4.01798 14.397 3.81193 13.5728 3.81193H11.7527C10.9628 3.81193 10.6537 4.01798 10.482 4.87652L7.73469 17.583H7.66601L5.33077 3.88061H1.79358L5.19341 20.3303C5.33077 21.0515 5.60551 21.2232 6.39537 21.2232H8.7306C9.52046 21.2232 9.79519 21.0515 9.93256 20.296L12.5082 8.37938H12.5769L15.1525 20.296C15.3242 21.0515 15.5646 21.2232 16.3545 21.2232H18.6553C19.4796 21.2232 19.7199 21.0515 19.8573 20.3303L23.2915 3.88061ZM25.0772 25.0695H0.0078125V0H25.0772V25.0695ZM66.4246 16.7588C66.4372 18.2404 66.5405 19.7198 66.7337 21.1888H70.1679C70.0649 20.2616 69.9618 18.7162 69.8932 16.5184C69.8245 14.3205 69.0003 13.565 67.2145 13.2216V13.1529C69.2063 12.8438 70.0649 11.8822 70.0649 8.82582C70.0649 6.28454 69.6528 5.35731 68.9659 4.67047C68.2791 3.98364 67.5579 3.91496 66.2186 3.91496H55.6757V21.1888H59.2472V14.4579H64.1924C65.2227 14.4579 65.6348 14.5265 65.9095 14.8013C66.1842 15.076 66.3903 15.3851 66.4246 16.7588ZM59.2472 11.6418V6.834H64.9136C65.7035 6.834 65.9439 6.90269 66.0812 7.04005C66.2186 7.17742 66.562 7.6582 66.562 9.16924C66.562 10.6803 66.3216 11.1611 66.0469 11.4015C65.7721 11.6418 65.6691 11.6418 64.8793 11.6418H59.2472ZM75.2161 25.0695H50.1467V0H75.2161V25.0695ZM105.815 3.88061V21.1888H114.331C116.77 21.1888 118.109 20.8454 119.173 19.9182C120.238 18.991 120.994 16.8274 120.994 12.5691C120.994 8.3107 120.41 6.28453 119.173 5.21994C117.937 4.15535 116.804 3.9493 114.331 3.9493H105.815V3.88061ZM117.456 12.5347C117.456 16.2436 117.147 17.2052 116.495 17.7203C115.842 18.2355 115.362 18.2355 114.091 18.2355H109.386V6.834H114.091C115.396 6.834 115.945 6.90269 116.495 7.34913C117.044 7.79557 117.456 8.82582 117.456 12.5691V12.5347ZM125.355 25.0695H100.286V0H125.355V25.0695ZM79.8179 6.76532V3.88061H94.5505V9.44397H91.4597V6.76532H85.4843V10.8863H90.2234V13.668H85.4843V18.3041H91.5971V15.2821H94.7222V21.1888H79.8179V18.3041H82.1531V6.76532H79.8179Z" fill="#4D809E"/>
</svg>
