<svg viewBox="0 0 109 28" fill="none" xmlns="http://www.w3.org/2000/svg">
<path d="M65.8317 7.69905C64.0932 7.69905 62.7277 8.07199 61.3614 8.81643C61.3614 4.84248 61.3614 1.24146 61.4862 0L53.1646 1.48961V2.23477L54.0339 2.35884C55.1506 2.60699 55.5249 3.22736 55.7709 4.7184C56.0212 7.69905 55.8957 23.5956 55.7709 26.204C58.0064 26.701 60.3667 27.074 62.727 27.074C69.3094 27.074 73.2833 22.9752 73.2833 16.5169C73.2833 11.4256 70.0545 7.69905 65.8317 7.69905ZM62.9751 25.707C62.4781 25.707 61.8563 25.707 61.4848 25.5837C61.36 23.8452 61.2366 16.5169 61.36 10.0593C62.1052 9.81046 62.6015 9.68639 63.2233 9.68639C65.9572 9.68639 67.4475 12.9152 67.4475 16.8884C67.4468 21.8578 65.5835 25.707 62.9751 25.707ZM21.8664 0.496297H0.0078125V1.61368L1.24999 1.73775C2.86367 1.9859 3.48548 2.97921 3.73291 5.33877C4.10657 9.80974 3.98177 17.8832 3.73291 21.7316C3.48476 24.0919 2.86439 25.21 1.24999 25.3326L0.0078125 25.5822V26.5755H14.0418V25.5822L12.5515 25.3326C10.9371 25.2093 10.316 24.0919 10.0679 21.7316C9.94307 20.1165 9.819 17.5081 9.819 14.28L12.7996 14.4041C14.6629 14.4041 15.5314 15.8944 15.9044 18.0051H17.0225V9.19009H15.9044C15.5307 11.3015 14.6629 12.7911 12.7996 12.7911L9.81972 12.9159C9.81972 8.69308 9.94379 4.71912 10.0686 2.35956H14.4148C17.7691 2.35956 19.5075 4.47025 20.749 8.19678L21.9912 7.82384L21.8664 0.496297Z" fill="#4D809E"/>
<path d="M28.9449 7.45023C35.1551 7.45023 38.2598 11.6731 38.2598 17.2614C38.2598 22.6017 34.7821 27.0741 28.572 27.0741C22.3625 27.0741 19.2578 22.8505 19.2578 17.2614C19.2578 11.9212 22.7348 7.45023 28.9449 7.45023ZM28.572 8.69241C25.8395 8.69241 25.0943 12.4182 25.0943 17.2614C25.0943 21.9806 26.3365 25.8305 28.8208 25.8305C31.6753 25.8305 32.4219 22.1047 32.4219 17.2614C32.4219 12.5423 31.1811 8.69241 28.572 8.69241ZM74.8961 17.3862C74.8961 12.2942 78.1249 7.45023 84.4592 7.45023C89.6739 7.45023 92.1589 11.3008 92.1589 16.3922H80.6086C80.4838 20.9873 82.7192 24.3409 87.1909 24.3409C89.1783 24.3409 90.1716 23.8453 91.4145 22.9753L91.9101 23.5957C90.6679 25.3342 87.9361 27.0741 84.4592 27.0741C78.8701 27.0734 74.8961 23.0994 74.8961 17.3862ZM80.6086 15.0267L86.4458 14.9019C86.4458 12.4182 86.0728 8.69241 83.9621 8.69241C81.8514 8.69241 80.7319 12.1694 80.6086 15.0267ZM106.94 8.44426C105.45 7.82246 103.463 7.45023 101.228 7.45023C96.6335 7.45023 93.7755 10.182 93.7755 13.4115C93.7755 16.6411 95.8847 18.0066 98.869 19.0006C101.973 20.1173 102.843 20.9873 102.843 22.4776C102.843 23.9679 101.725 25.3335 99.7375 25.3335C97.3786 25.3335 95.6387 23.9679 94.2732 20.2414L93.4033 20.491L93.528 25.9553C95.0184 26.5756 97.7502 27.0734 100.11 27.0734C104.954 27.0734 108.06 24.5883 108.06 20.7391C108.06 18.1307 106.693 16.6411 103.464 15.3982C99.9856 14.0326 98.7449 13.1634 98.7449 11.5483C98.7449 9.93388 99.8644 8.81577 101.355 8.81577C103.589 8.81577 105.079 10.182 106.199 13.5356L107.067 13.2875L106.94 8.44426ZM54.4045 7.94725C52.2938 6.7065 48.5673 7.32616 46.5807 11.7979L46.704 7.45095L38.3839 9.06535V9.81052L39.2531 9.93459C40.3719 10.0594 40.8675 10.6798 40.9923 12.2949C41.2405 15.2755 41.1164 20.4924 40.9923 23.1001C40.8675 24.589 40.3719 25.3342 39.2531 25.459L38.3839 25.5838V26.5771H49.9335V25.5838L48.4432 25.459C47.2018 25.3342 46.8288 24.589 46.704 23.1001C46.4559 20.7398 46.4559 16.0207 46.5807 13.04C47.201 12.1701 49.9335 11.4256 52.4172 13.04L54.4045 7.94725Z" fill="#4D809E"/>
</svg>
