<svg viewBox="0 0 80 78" fill="none" xmlns="http://www.w3.org/2000/svg">
<path d="M77.9999 51.687H61.6245V62.6039H77.9999" stroke="#0C2340" stroke-width="2.72923" stroke-linejoin="round"/>
<path d="M35.0146 24.3945H7.94975L1.58154 27.6355V73.0089L7.94975 76.2499H71.6318L78 73.0089V34.1174H71.6318V24.3945H68.4477" stroke="#0C2340" stroke-width="2.72923" stroke-linejoin="round"/>
<path d="M30.5126 34.5808L46.4893 2.75049L72.1266 15.6187L62.6089 34.5808" stroke="#FB534A" stroke-width="2.72923" stroke-linecap="round" stroke-linejoin="round"/>
<path d="M7.57175 31.3254C6.87766 31.0317 6.07693 31.3564 5.78327 32.0504C5.48962 32.7445 5.81424 33.5453 6.50833 33.8389L7.57175 31.3254ZM13.4909 35.3114L12.9592 36.5681L13.2142 36.676H13.4909V35.3114ZM78 36.676C78.7537 36.676 79.3646 36.065 79.3646 35.3114C79.3646 34.5577 78.7537 33.9468 78 33.9468V36.676ZM6.50833 33.8389L12.9592 36.5681L14.0227 34.0546L7.57175 31.3254L6.50833 33.8389ZM13.4909 36.676H78V33.9468H13.4909V36.676Z" fill="#0C2340"/>
</svg>
