<svg viewBox="0 0 120 38" fill="none" xmlns="http://www.w3.org/2000/svg">
<path d="M2.03228 4.89746C0.944128 4.89746 0 5.79361 0 6.91378C0 8.04995 0.944128 8.94608 2.03228 8.94608C3.16843 8.94608 4.04855 8.04995 4.04855 6.91378C4.04855 5.79361 3.16843 4.89746 2.03228 4.89746Z" fill="inherit"/>
<path d="M4.48079 22.7716C3.88871 22.7716 3.45665 22.4195 3.45665 21.7634V12.4819C3.45665 12.1138 3.18461 11.8418 2.81656 11.8418H1.08833C0.720279 11.8418 0.448242 12.1138 0.448242 12.4819C0.448242 12.4819 0.448242 22.1475 0.448242 22.1315C0.448242 24.5959 1.71241 25.716 3.55266 25.716C4.00073 25.716 4.32077 25.7 4.64081 25.604C4.83284 25.556 4.96086 25.364 4.96086 25.172V23.2356C4.97686 22.9316 4.73683 22.7716 4.48079 22.7716Z" fill="inherit"/>
<path d="M26.0988 11.8739H24.2265C23.9545 11.8739 23.6984 12.0499 23.6024 12.322L20.738 21.3154L17.8096 12.322C17.7296 12.0659 17.4736 11.8739 17.2015 11.8739H15.8414C15.5693 11.8739 15.3293 12.0499 15.2333 12.306L12.2409 21.2994L9.44049 12.306C9.36048 12.0339 9.12044 11.8579 8.8164 11.8579H6.96015C6.52809 11.8579 6.20805 12.29 6.36807 12.7221L10.5446 25.1561C10.6246 25.4121 10.8807 25.5881 11.1367 25.5881H13.025C13.297 25.5881 13.537 25.4121 13.6171 25.1561L16.4654 16.7067L19.3138 25.1561C19.3938 25.4121 19.6499 25.5881 19.9219 25.5881H21.8742C22.1462 25.5881 22.3862 25.4121 22.4663 25.1561L26.6428 12.7221C26.8509 12.322 26.5308 11.8739 26.0988 11.8739Z" fill="inherit"/>
<path d="M35.3807 11.5703C31.3321 11.5703 28.1797 14.7228 28.1797 18.7074C28.1797 22.6921 31.3321 25.8446 35.3807 25.8446C39.4292 25.8446 42.5816 22.6921 42.5816 18.7074C42.5816 14.7228 39.4612 11.5703 35.3807 11.5703ZM35.3807 23.0601C32.9323 23.0601 31.2521 21.1718 31.2521 18.7234C31.2521 16.275 32.9163 14.3868 35.3807 14.3868C37.829 14.3868 39.5092 16.275 39.5092 18.7234C39.5252 21.1718 37.765 23.0601 35.3807 23.0601Z" fill="inherit"/>
<path d="M51.8308 14.3387C53.303 14.3387 54.5352 15.0749 55.2713 16.131C55.4473 16.3711 55.7673 16.4511 56.0554 16.3551L57.7036 15.667C57.9276 15.5549 58.0716 15.3469 58.0716 15.0749C58.0716 14.9629 58.0556 14.8508 57.9916 14.7708C57.9916 14.7548 56.2634 11.5703 51.9108 11.5703C47.7342 11.5703 44.5498 14.6908 44.5498 18.7875C44.5498 22.8841 47.7342 26.0046 51.9108 25.8446C56.1354 25.8446 57.9596 22.6761 57.9596 22.6761C58.0236 22.5641 58.0716 22.452 58.0716 22.324C58.0716 22.068 57.9276 21.8439 57.6876 21.7319L56.0394 21.0438C55.7513 20.9318 55.4313 20.9958 55.2553 21.2678C54.5032 22.356 53.303 23.0921 51.8308 23.0921C49.4305 23.0921 47.5902 21.0758 47.5902 18.6754C47.6062 16.2431 49.3825 14.3387 51.8308 14.3387Z" fill="inherit"/>
<path d="M117.903 37.606H84.5068C83.3387 37.606 82.3945 36.6619 82.3945 35.4937V2.11235C82.3945 0.944162 83.3387 0 84.5068 0H117.887C119.056 0 120 0.944162 120 2.11235V35.4937C120.016 36.6619 119.072 37.606 117.903 37.606ZM86.6351 33.3653H115.791V4.20868H86.6351V33.3653Z" fill="inherit"/>
<path d="M108.99 18.1473V12.1144C108.99 11.8103 108.686 11.6023 108.398 11.7143L105.022 13.1225C104.862 13.1865 104.766 13.3466 104.766 13.5226V24.0843C104.766 24.2603 104.862 24.4043 105.022 24.4843L108.398 25.8926C108.686 26.0046 108.99 25.8126 108.99 25.4925V18.1473Z" fill="inherit"/>
<path d="M97.6445 13.5226V24.0843C97.6445 24.2603 97.5485 24.4043 97.3885 24.4843L94.012 25.8926C93.724 26.0046 93.4199 25.8126 93.4199 25.4925V12.1144C93.4199 11.8103 93.724 11.6023 94.012 11.7143L97.3885 13.1225C97.5325 13.1865 97.6445 13.3466 97.6445 13.5226Z" fill="inherit"/>
<path d="M74.9705 22.7561C74.3784 22.7561 74.0264 22.388 73.9464 21.7479V12.5145C73.9464 12.1464 73.6743 11.8744 73.3063 11.8744H71.5941C71.226 11.8744 70.954 12.1464 70.954 12.5145V13.1066C70.0578 12.1144 68.6337 11.5703 66.9694 11.5703C62.9209 11.5703 60.1045 14.8508 60.1045 18.7074C60.1045 22.564 62.9049 25.8446 66.9694 25.8446C68.4896 25.8446 69.9458 25.5565 71.5941 23.7002C71.9621 24.9004 72.9062 25.7166 74.0584 25.7166C74.5064 25.7166 74.8265 25.7005 75.1465 25.6045C75.3386 25.5565 75.4666 25.3645 75.4666 25.1725V23.2362C75.4666 22.9481 75.2265 22.7561 74.9705 22.7561ZM71.002 21.2038C70.2339 22.26 69.0497 23.0921 67.3535 23.1561C64.8731 23.1561 63.1609 21.0118 63.3049 18.4194C63.4489 15.939 65.6412 14.0187 68.0896 14.3868C69.4178 14.5788 70.3459 15.3309 70.986 16.227V21.2038H71.002Z" fill="inherit"/>
</svg>
