<svg viewBox="0 0 16 29" fill="none" xmlns="http://www.w3.org/2000/svg">
<path d="M3.68479 0.0834823C3.32491 -0.0664024 2.93776 -0.00106223 2.60558 0.173126C2.24074 0.445032 1.95614 0.748146 1.82843 1.10814C-0.362741 7.50639 -0.580939 13.2717 1.15462 18.0126C2.8925 22.7599 6.57515 26.4311 12.0375 28.7258C12.4103 28.8162 12.8188 28.7799 13.1298 28.6226C13.4619 28.4497 13.7764 28.1594 13.9393 27.7299C14.5137 26.2279 15.0893 24.7238 15.6629 23.2228C15.8107 22.7973 15.7676 22.3744 15.6339 22.0142C15.5003 21.654 15.2637 21.3274 14.902 21.1786C13.7101 20.6815 12.3055 19.5158 11.1663 18.5956C11.0371 18.4906 10.8547 18.4734 10.7002 18.5518L7.4774 20.1956C5.46757 17.1027 4.79096 15.2167 4.30564 11.3522L7.50832 9.71903C7.67118 9.6354 7.79594 9.44804 7.82165 9.24844C8.0513 7.58105 8.22425 5.30394 8.88594 3.84072C9.02049 3.42528 8.86353 2.93417 8.71722 2.6401C8.56153 2.33294 8.31647 2.02694 7.94731 1.88416C6.52647 1.28394 5.10563 0.683708 3.68479 0.0834823Z" fill="#FF594B"/>
</svg>
