<svg viewBox="0 0 79 79" fill="none" xmlns="http://www.w3.org/2000/svg">
<path d="M39.5 77C60.2107 77 77 60.2107 77 39.5C77 18.7893 60.2107 2 39.5 2C18.7893 2 2 18.7893 2 39.5C2 60.2107 18.7893 77 39.5 77Z" stroke="#0C2340" stroke-width="3.125" stroke-miterlimit="10" stroke-linecap="round" stroke-linejoin="round"/>
<path d="M52.2188 54.4688V55.5312C52.2188 56.1875 51.8125 56.5938 51.1562 56.5938H28.0625C27.4063 56.5625 27 56.1562 27 55.5V54.5938C27 54.0312 27.1875 53.6562 27.6562 53.2812C29.9062 51.5312 32.5625 49.2188 32.5625 45.6875C32.5625 44.125 32.3125 42.7188 32 41.4688H28.0625C27.4063 41.5 27 41.1562 27 40.5V39.8125C27 39.1562 27.4063 38.8125 28.0625 38.8125H31.2188C30.5625 36.875 29.9688 34.9062 29.9688 32.4688C29.9375 24.9062 34.4063 20.75 41.0938 20.75C46.0625 20.75 49.7188 23.3438 51.5625 26.9688C51.875 27.5625 51.5625 27.9688 50.875 28.2813L49.8438 28.6562C49.25 28.9062 48.7812 28.6562 48.4375 28.0625C46.9688 25.6562 44.5938 23.9062 41.0938 23.9062C36.1875 23.9062 33.25 27.0938 33.25 32.6562C33.25 35 33.8125 36.9062 34.4062 38.8125H46.4688C47.125 38.8125 47.5312 39.1562 47.5312 39.8125V40.5C47.5312 41.1562 47.125 41.5 46.4688 41.5H35.25C35.5938 42.8438 35.8438 44.25 35.8438 45.9062C35.8438 49.25 33.7812 51.8125 31.5 53.3438V53.4062H51.1562C51.8125 53.4062 52.2188 53.8125 52.2188 54.4688Z" fill="#FB534A"/>
<path d="M72.3125 22.3125L6.6875 55.125" stroke="#0C2340" stroke-width="3.125" stroke-miterlimit="10" stroke-linecap="round" stroke-linejoin="round"/>
</svg>
