<svg viewBox="0 0 173 124" fill="none" xmlns="http://www.w3.org/2000/svg">
<path d="M43.6201 14.4795H60.4202V17.6219H53.8144V35.2872H50.182V17.6219H43.6055V14.4795H43.6201ZM59.7025 20.2211H62.8076V23.1286H62.8662C62.9688 22.7174 63.1592 22.3209 63.4374 21.9391C63.7157 21.5573 64.0526 21.1902 64.4481 20.8819C64.8436 20.5588 65.283 20.3092 65.7663 20.1036C66.2497 19.9127 66.7477 19.8099 67.2457 19.8099C67.6265 19.8099 67.9048 19.8246 68.0512 19.8393C68.1977 19.854 68.3442 19.8833 68.5053 19.898V23.0992C68.2709 23.0551 68.0366 23.0258 67.7876 22.9964C67.5386 22.967 67.3042 22.9523 67.0699 22.9523C66.5133 22.9523 65.986 23.0698 65.488 23.2901C64.99 23.5104 64.5653 23.8481 64.1991 24.2739C63.8329 24.7145 63.54 25.2431 63.3203 25.8892C63.1006 26.5353 62.998 27.2695 62.998 28.1065V35.2725H59.6878V20.2211H59.7025ZM83.7235 35.2872H80.4719V33.1873H80.4133C80.0032 33.9509 79.4026 34.553 78.5971 35.0082C77.7915 35.4634 76.9712 35.6983 76.1364 35.6983C74.159 35.6983 72.7236 35.2138 71.8448 34.2299C70.966 33.2461 70.5266 31.7629 70.5266 29.7806V20.2211H73.8368V29.4575C73.8368 30.7791 74.0858 31.7189 74.5984 32.2622C75.0964 32.8055 75.8141 33.0845 76.7222 33.0845C77.4253 33.0845 77.9965 32.9817 78.4652 32.7615C78.9339 32.5412 79.3148 32.2622 79.593 31.8951C79.886 31.5427 80.091 31.1021 80.2229 30.6029C80.3547 30.1036 80.4133 29.5603 80.4133 28.9729V20.2357H83.7235V35.2872ZM89.3626 30.456C89.4651 31.4252 89.8313 32.1007 90.4611 32.4972C91.1056 32.8789 91.8672 33.0845 92.7607 33.0845C93.0683 33.0845 93.4198 33.0552 93.8153 33.0111C94.2107 32.9671 94.5915 32.8643 94.9284 32.7321C95.2799 32.5999 95.5582 32.3944 95.7926 32.13C96.0123 31.8657 96.1148 31.528 96.1002 31.1021C96.0855 30.6763 95.9244 30.3239 95.6315 30.0596C95.3385 29.7806 94.9724 29.575 94.5183 29.3988C94.0642 29.2372 93.5516 29.0904 92.9657 28.9729C92.3798 28.8554 91.794 28.7233 91.1934 28.5911C90.5783 28.459 89.9777 28.2828 89.4065 28.0919C88.8353 27.901 88.3226 27.6366 87.8686 27.2989C87.4145 26.9759 87.0484 26.55 86.7847 26.0361C86.5064 25.5221 86.3746 24.8907 86.3746 24.1271C86.3746 23.3048 86.5796 22.6293 86.9751 22.0713C87.3706 21.5133 87.8832 21.0728 88.4838 20.735C89.0989 20.3973 89.7727 20.1623 90.5197 20.0155C91.2667 19.8833 91.9844 19.8099 92.6581 19.8099C93.4344 19.8099 94.1814 19.898 94.8845 20.0595C95.5875 20.2211 96.232 20.4854 96.8032 20.8672C97.3745 21.2343 97.8432 21.7189 98.224 22.3062C98.6048 22.8936 98.8391 23.6131 98.9417 24.4501H95.485C95.3239 23.6572 94.9724 23.1139 94.4011 22.8496C93.8299 22.5706 93.1708 22.4384 92.4384 22.4384C92.2041 22.4384 91.9258 22.4531 91.6036 22.4971C91.2813 22.5412 90.9884 22.6146 90.6954 22.7174C90.4172 22.8202 90.1828 22.9817 89.9777 23.1873C89.7873 23.3929 89.6848 23.6572 89.6848 23.9949C89.6848 24.4061 89.8313 24.7291 90.1096 24.9788C90.3879 25.2284 90.754 25.434 91.2081 25.6102C91.6621 25.7717 92.1748 25.9186 92.7607 26.0361C93.3465 26.1535 93.9471 26.2857 94.5622 26.4178C95.1628 26.55 95.7486 26.7262 96.3345 26.9171C96.9204 27.108 97.433 27.3723 97.8871 27.7101C98.3412 28.0478 98.7073 28.459 98.9856 28.9582C99.2639 29.4575 99.4104 30.0889 99.4104 30.8231C99.4104 31.7189 99.2053 32.4678 98.7952 33.0992C98.3851 33.716 97.8578 34.2299 97.2133 34.6117C96.5689 34.9935 95.8365 35.2872 95.0456 35.4634C94.2547 35.6396 93.4637 35.7277 92.6874 35.7277C91.7354 35.7277 90.8566 35.6249 90.051 35.4046C89.2454 35.1844 88.5423 34.8613 87.9565 34.4355C87.3706 33.995 86.9019 33.4516 86.565 32.8055C86.2281 32.1594 86.0524 31.3811 86.0231 30.4854H89.3626V30.456ZM100.289 20.2211H102.794V15.6983H106.104V20.2211H109.092V22.7027H106.104V30.7497C106.104 31.1021 106.119 31.3958 106.148 31.6601C106.177 31.9098 106.251 32.13 106.353 32.3063C106.456 32.4825 106.617 32.6146 106.836 32.7027C107.056 32.7908 107.334 32.8349 107.715 32.8349C107.95 32.8349 108.184 32.8349 108.418 32.8202C108.653 32.8055 108.887 32.7762 109.121 32.7174V35.2872C108.755 35.3312 108.389 35.3606 108.052 35.4046C107.701 35.4487 107.349 35.4634 106.983 35.4634C106.104 35.4634 105.401 35.3753 104.874 35.2138C104.346 35.0522 103.922 34.8026 103.629 34.4795C103.321 34.1565 103.131 33.76 103.014 33.2754C102.911 32.7908 102.838 32.2328 102.823 31.6161V22.7321H100.318V20.2211H100.289ZM111.436 20.2211H114.57V22.2622H114.629C115.097 21.3811 115.742 20.7644 116.577 20.3826C117.411 20.0008 118.305 19.8099 119.286 19.8099C120.473 19.8099 121.498 20.0155 122.377 20.4413C123.256 20.8525 123.988 21.4252 124.574 22.1594C125.16 22.8936 125.585 23.7453 125.877 24.7145C126.17 25.6836 126.317 26.7262 126.317 27.8275C126.317 28.8408 126.185 29.8246 125.921 30.7644C125.658 31.7189 125.262 32.5559 124.735 33.2901C124.208 34.0243 123.534 34.597 122.714 35.0375C121.893 35.4781 120.941 35.6983 119.828 35.6983C119.345 35.6983 118.862 35.6543 118.378 35.5662C117.895 35.4781 117.426 35.3312 116.987 35.1403C116.547 34.9494 116.123 34.6998 115.756 34.3914C115.376 34.0831 115.068 33.7306 114.804 33.3342H114.746V40.8525H111.436V20.2211ZM123.007 27.7688C123.007 27.0933 122.919 26.4325 122.743 25.7864C122.567 25.1403 122.304 24.5823 121.952 24.083C121.601 23.5838 121.161 23.1873 120.648 22.8936C120.121 22.5999 119.521 22.4384 118.847 22.4384C117.455 22.4384 116.401 22.923 115.698 23.8921C114.995 24.8613 114.643 26.1535 114.643 27.7688C114.643 28.5324 114.731 29.2372 114.922 29.8833C115.112 30.5295 115.376 31.0875 115.756 31.5574C116.123 32.0273 116.562 32.3944 117.075 32.6587C117.587 32.9377 118.188 33.0698 118.862 33.0698C119.623 33.0698 120.253 32.9083 120.78 32.5999C121.308 32.2916 121.732 31.8804 122.069 31.3958C122.406 30.8966 122.655 30.3386 122.802 29.7071C122.933 29.0757 123.007 28.4296 123.007 27.7688ZM128.851 14.4795H132.161V17.6219H128.851V14.4795ZM128.851 20.2211H132.161V35.2872H128.851V20.2211ZM135.12 14.4795H138.43V35.2872H135.12V14.4795ZM148.58 35.6983C147.379 35.6983 146.31 35.4928 145.373 35.0963C144.435 34.6998 143.644 34.1418 142.985 33.4516C142.341 32.7468 141.843 31.9098 141.506 30.9406C141.169 29.9715 140.993 28.8995 140.993 27.7394C140.993 26.5941 141.169 25.5368 141.506 24.5676C141.843 23.5985 142.341 22.7614 142.985 22.0566C143.63 21.3518 144.435 20.8084 145.373 20.412C146.31 20.0155 147.379 19.8099 148.58 19.8099C149.781 19.8099 150.851 20.0155 151.788 20.412C152.725 20.8084 153.516 21.3664 154.175 22.0566C154.82 22.7614 155.318 23.5985 155.655 24.5676C155.992 25.5368 156.167 26.5941 156.167 27.7394C156.167 28.8995 155.992 29.9715 155.655 30.9406C155.318 31.9098 154.82 32.7468 154.175 33.4516C153.531 34.1565 152.725 34.6998 151.788 35.0963C150.851 35.4928 149.781 35.6983 148.58 35.6983ZM148.58 33.0698C149.313 33.0698 149.957 32.9083 150.499 32.5999C151.041 32.2916 151.48 31.8804 151.832 31.3811C152.183 30.8819 152.432 30.3092 152.608 29.6778C152.769 29.0463 152.857 28.4002 152.857 27.7394C152.857 27.0933 152.769 26.4619 152.608 25.8158C152.447 25.1697 152.183 24.6117 151.832 24.1124C151.48 23.6131 151.041 23.2167 150.499 22.9083C149.957 22.5999 149.313 22.4384 148.58 22.4384C147.848 22.4384 147.203 22.5999 146.661 22.9083C146.12 23.2167 145.68 23.6278 145.329 24.1124C144.977 24.6117 144.728 25.1697 144.552 25.8158C144.391 26.4619 144.303 27.0933 144.303 27.7394C144.303 28.4002 144.391 29.0463 144.552 29.6778C144.713 30.3092 144.977 30.8819 145.329 31.3811C145.68 31.8804 146.12 32.2916 146.661 32.5999C147.203 32.923 147.848 33.0698 148.58 33.0698ZM157.134 20.2211H159.639V15.6983H162.949V20.2211H165.937V22.7027H162.949V30.7497C162.949 31.1021 162.964 31.3958 162.993 31.6601C163.022 31.9098 163.095 32.13 163.198 32.3063C163.3 32.4825 163.462 32.6146 163.681 32.7027C163.901 32.7908 164.179 32.8349 164.56 32.8349C164.794 32.8349 165.029 32.8349 165.263 32.8202C165.497 32.8055 165.732 32.7762 165.966 32.7174V35.2872C165.6 35.3312 165.234 35.3606 164.897 35.4046C164.545 35.4487 164.194 35.4634 163.828 35.4634C162.949 35.4634 162.246 35.3753 161.719 35.2138C161.191 35.0522 160.766 34.8026 160.474 34.4795C160.166 34.1565 159.976 33.76 159.858 33.2754C159.756 32.7908 159.683 32.2328 159.668 31.6161V22.7321H157.163V20.2211H157.134Z" fill="black" fill-opacity="0.87"/>
<path d="M39.745 14.4787H24.5708L19.8837 0L15.1821 14.4787L0.0078125 14.4641L12.2966 23.4215L7.59494 37.8855L19.8837 28.9428L32.1579 37.8855L27.4709 23.4215L39.745 14.4787Z" fill="#00B67A"/>
<path d="M28.5211 26.6945L27.4665 23.4199L19.8794 28.9412L28.5211 26.6945Z" fill="#005128"/>
<path d="M8.67822 49.2012H38.1103V78.3083H8.67822V49.2012Z" fill="#00B67A"/>
<path d="M23.4184 68.8861L27.8868 67.7174L29.7702 73.4512L23.4184 68.8861ZM33.7215 61.4723H25.8188L23.3815 54.0586L20.9442 61.4723H13.0415L19.4302 66.074L16.9929 73.4877L23.3815 68.9226L27.3329 66.074L33.7215 61.4723Z" fill="white"/>
<path d="M40.4893 49.2007H69.9214V78.3078H40.4893V49.2007Z" fill="#00B67A"/>
<path d="M55.2334 68.8861L59.7017 67.7174L61.5851 73.4512L55.2334 68.8861ZM65.5365 61.4723H57.6337L55.1965 54.0586L52.7592 61.4723H44.8564L51.2451 66.074L48.8078 73.4877L55.1965 68.9226L59.1478 66.074L65.5365 61.4723Z" fill="white"/>
<path d="M72.291 49.2007H101.723V78.3078H72.291V49.2007Z" fill="#00B67A"/>
<path d="M87.0332 68.8861L91.5016 67.7174L93.3849 73.4512L87.0332 68.8861ZM97.3363 61.4723H89.4336L86.9963 54.0586L84.559 61.4723H76.6562L83.0449 66.074L80.6076 73.4877L86.9963 68.9226L90.9476 66.074L97.3363 61.4723Z" fill="white"/>
<path d="M104.105 49.2007H133.538V78.3078H104.105V49.2007Z" fill="#00B67A"/>
<path d="M118.833 68.8861L123.301 67.7174L125.184 73.4512L118.833 68.8861ZM129.136 61.4723H121.233L118.796 54.0586L116.358 61.4723H108.456L114.844 66.074L112.407 73.4877L118.796 68.9226L122.747 66.074L129.136 61.4723Z" fill="white"/>
<path d="M135.922 49.2007H165.354V78.3078H135.922V49.2007Z" fill="#00B67A"/>
<path d="M150.65 68.8861L155.118 67.7174L157.002 73.4512L150.65 68.8861ZM160.953 61.4723H153.05L150.613 54.0586L148.176 61.4723H140.273L146.662 66.074L144.224 73.4877L150.613 68.9226L154.564 66.074L160.953 61.4723Z" fill="white"/>
<path d="M15.8883 114.979H17.955V112.535H19.358V110.634H17.955V104.268H16.1146L10.563 110.86V112.535H15.8883V114.979ZM13.0974 110.634L15.8883 107.33V110.634H13.0974ZM23.261 114.979V112.459H20.7417V114.979H23.261ZM28.5455 115.144C30.7027 115.144 32.3471 113.696 32.3471 111.69C32.3471 110.483 31.8342 109.638 30.9743 109.11C31.5626 108.582 31.8945 107.873 31.8945 106.983C31.8945 105.324 30.5519 104.087 28.5455 104.087C26.5391 104.087 25.1964 105.324 25.1964 106.983C25.1964 107.873 25.5283 108.597 26.1167 109.125C25.2266 109.653 24.7439 110.483 24.7439 111.69C24.7439 113.696 26.3882 115.144 28.5455 115.144ZM28.5455 113.229C27.4895 113.229 26.8709 112.489 26.8709 111.645C26.8709 110.8 27.4895 110.061 28.5455 110.061C29.5864 110.061 30.22 110.8 30.22 111.645C30.22 112.489 29.5864 113.229 28.5455 113.229ZM28.5455 108.401C27.7761 108.401 27.2028 107.873 27.2028 107.164C27.2028 106.455 27.7761 105.927 28.5455 105.927C29.3148 105.927 29.8881 106.455 29.8881 107.164C29.8881 107.873 29.3148 108.401 28.5455 108.401ZM37.6034 114.979H39.7908V110.468H40.3188L43.9997 114.979H46.6397L42.7929 110.227C44.226 109.789 44.9954 108.884 44.9954 107.436C44.9954 105.656 43.698 104.268 41.7067 104.268H37.6034V114.979ZM39.7908 108.597V106.274H41.4502C42.28 106.274 42.823 106.696 42.823 107.436C42.823 108.16 42.28 108.597 41.4502 108.597H39.7908ZM50.2266 115.144C51.0563 115.144 51.7201 114.858 52.1576 114.42V114.979H54.2243V107.436H52.1576V107.979C51.7201 107.556 51.0563 107.27 50.2266 107.27C47.9939 107.27 46.5004 109.095 46.5004 111.207C46.5004 113.319 47.9939 115.144 50.2266 115.144ZM50.5283 113.259C49.3969 113.259 48.6426 112.323 48.6426 111.207C48.6426 110.091 49.3969 109.155 50.5283 109.155C51.3279 109.155 51.8106 109.502 52.1576 109.97V112.429C51.8106 112.912 51.3279 113.259 50.5283 113.259ZM60.1878 115.069C60.9571 115.069 61.7718 114.828 62.1338 114.632L61.5153 112.942C61.289 113.063 60.8817 113.198 60.4744 113.198C59.705 113.198 59.3279 112.851 59.3279 111.931V109.246H61.6058V107.436H59.3279V105.173H57.2611V107.436H55.4358V109.246H57.2611V112.339C57.2611 114.194 58.4982 115.069 60.1878 115.069ZM64.2438 106.5C64.983 106.5 65.5714 105.912 65.5714 105.188C65.5714 104.464 64.983 103.875 64.2438 103.875C63.5348 103.875 62.9314 104.464 62.9314 105.188C62.9314 105.912 63.5348 106.5 64.2438 106.5ZM63.218 114.979H65.2847V107.436H63.218V114.979ZM67.2693 114.979H69.3361V110.015C69.6529 109.517 70.2261 109.155 70.9352 109.155C71.8856 109.155 72.3381 109.864 72.3381 110.951V114.979H74.4049V110.604C74.4049 108.612 73.2885 107.27 71.3877 107.27C70.5429 107.27 69.8188 107.541 69.3361 108.069V107.436H67.2693V114.979ZM79.6492 118.056C81.55 118.056 83.6016 117.211 83.6016 114.556V107.436H81.5349V107.979C81.0974 107.556 80.4336 107.27 79.5888 107.27C77.4316 107.27 75.8174 108.944 75.8174 111.056C75.8174 113.168 77.4014 114.828 79.5888 114.828C80.4336 114.828 81.0974 114.541 81.5349 114.104V114.571C81.5349 115.733 80.5242 116.246 79.619 116.246C78.8496 116.246 78.0954 116.004 77.4467 115.461L76.3152 117C77.16 117.724 78.3971 118.056 79.6492 118.056ZM79.9056 112.957C78.7742 112.957 77.9596 112.157 77.9596 111.056C77.9596 109.925 78.7742 109.155 79.9056 109.155C80.7052 109.155 81.1879 109.502 81.5349 109.97V112.112C81.1879 112.595 80.7052 112.957 79.9056 112.957ZM94.4828 112.474C95.6142 112.474 96.5496 111.569 96.5496 110.423C96.5496 109.276 95.6142 108.371 94.4828 108.371C93.3665 108.371 92.4312 109.276 92.4312 110.423C92.4312 111.569 93.3665 112.474 94.4828 112.474Z" fill="black"/>
<path d="M105.563 114.979H112.231V112.897H107.75V110.634H111.326V108.552H107.75V106.349H112.231V104.268H105.563V114.979ZM118.979 114.979H121.454L118.527 111.283L121.378 107.436H118.919L117.214 109.744L115.51 107.436H113.066L115.917 111.283L112.99 114.979H115.48L117.229 112.761L118.979 114.979ZM125.573 115.144C127.142 115.144 128.5 114.254 129.149 112.972L127.353 112.007C127.052 112.716 126.418 113.213 125.573 113.213C124.487 113.213 123.657 112.369 123.657 111.207C123.657 110.045 124.487 109.201 125.573 109.201C126.418 109.201 127.052 109.699 127.353 110.408L129.149 109.442C128.5 108.16 127.142 107.27 125.573 107.27C123.341 107.27 121.575 108.929 121.575 111.207C121.575 113.485 123.341 115.144 125.573 115.144ZM133.985 115.144C135.569 115.144 136.776 114.481 137.485 113.455L135.946 112.308C135.599 112.836 134.951 113.259 134 113.259C133.005 113.259 132.115 112.701 131.994 111.69H137.636C137.681 111.373 137.666 111.162 137.666 110.981C137.666 108.522 135.931 107.27 133.955 107.27C131.662 107.27 129.988 108.974 129.988 111.207C129.988 113.591 131.737 115.144 133.985 115.144ZM132.069 110.287C132.265 109.367 133.125 108.974 133.895 108.974C134.664 108.974 135.418 109.382 135.599 110.287H132.069ZM139.192 114.979H141.258V103.966H139.192V114.979ZM143.243 114.979H145.31V103.966H143.243V114.979ZM150.809 115.144C152.393 115.144 153.6 114.481 154.309 113.455L152.771 112.308C152.424 112.836 151.775 113.259 150.824 113.259C149.829 113.259 148.939 112.701 148.818 111.69H154.46C154.505 111.373 154.49 111.162 154.49 110.981C154.49 108.522 152.755 107.27 150.779 107.27C148.486 107.27 146.812 108.974 146.812 111.207C146.812 113.591 148.562 115.144 150.809 115.144ZM148.893 110.287C149.09 109.367 149.949 108.974 150.719 108.974C151.488 108.974 152.243 109.382 152.424 110.287H148.893ZM156.016 114.979H158.083V110.015C158.399 109.517 158.973 109.155 159.682 109.155C160.632 109.155 161.085 109.864 161.085 110.951V114.979H163.151V110.604C163.151 108.612 162.035 107.27 160.134 107.27C159.289 107.27 158.565 107.541 158.083 108.069V107.436H156.016V114.979ZM168.896 115.069C169.666 115.069 170.48 114.828 170.842 114.632L170.224 112.942C169.998 113.063 169.59 113.198 169.183 113.198C168.414 113.198 168.036 112.851 168.036 111.931V109.246H170.314V107.436H168.036V105.173H165.97V107.436H164.144V109.246H165.97V112.339C165.97 114.194 167.207 115.069 168.896 115.069Z" fill="#00B67A"/>
</svg>
