<svg xmlns="http://www.w3.org/2000/svg" xmlns:xlink="http://www.w3.org/1999/xlink" viewBox="0 0 189 22">
  <defs>
    <path id="icon-partner-yahoo-finance-a" d="M20.923.322l7.504 8.346V.322h2.024v13.32h-1.396l-8.15-9.211v9.008h-2.043V.322h2.061z"/>
    <path id="icon-partner-yahoo-finance-b" d="M15.489.322V13.44h-3.225V.322h3.225z"/>
  </defs>
  <g fill="#4D809E" fill-rule="evenodd">
    <g transform="translate(100.086 3.864)">
      <path d="M88.275.322v1.115h-6.598v4.329h5.481V6.89h-5.481v5.205h6.598v1.344h-9.824V.322zM69.57 0c.759 0 1.452.087 2.084.263.633.175 1.205.42 1.72.737a6.54 6.54 0 011.377 1.128 8.59 8.59 0 011.067 1.428l-1.368.949a10.657 10.657 0 00-.9-1.11 6.705 6.705 0 00-1.04-.912 5.173 5.173 0 00-1.165-.622 3.582 3.582 0 00-1.275-.23c-.604 0-1.18.113-1.729.34a4.155 4.155 0 00-1.446 1.004c-.416.443-.746.989-.989 1.64-.243.65-.365 1.403-.365 2.257 0 .847.129 1.596.389 2.247.258.651.602 1.198 1.03 1.64.428.442.922.777 1.479 1.004a4.549 4.549 0 001.732.34c.463 0 .893-.08 1.289-.238.398-.16.771-.374 1.119-.641s.673-.577.975-.93c.301-.353.591-.726.868-1.12l1.35.986a8.356 8.356 0 01-1.049 1.345c-.41.43-.87.81-1.382 1.142a7.04 7.04 0 01-1.673.792 6.156 6.156 0 01-1.912.295c-1.134 0-2.177-.164-3.129-.493-.952-.328-1.774-.793-2.467-1.396a6.356 6.356 0 01-1.622-2.164c-.388-.841-.582-1.778-.582-2.81 0-.662.083-1.293.25-1.892a6.474 6.474 0 01.716-1.663c.31-.51.69-.968 1.141-1.377A7 7 0 0165.582.893 7.946 7.946 0 0167.436.23 9.547 9.547 0 0169.57 0zM49.747.322l7.505 8.346V.322h2.024v13.319H57.88l-8.151-9.21v9.008h-2.043V.322zM39.896.036L46.06 13.44h-3.299l-1.646-3.584h-5.11l-1.728 3.584h-2.199L38.501.036h1.395zm-1.275 4.358L36.606 8.63h3.965l-1.95-4.237z"/>
      <use xlink:href="#icon-partner-yahoo-finance-a"/>
      <use xlink:href="#icon-partner-yahoo-finance-b"/>
      <path fill-rule="nonzero" d="M9.445.322v1.115h-6.22v4.329h5.481V6.89H3.225v6.549H0V.322z"/>
    </g>
    <path fill-rule="nonzero" d="M88.194 18.762c.095 0 .193.007.294.023.204.032.389.092.548.178.162.085.295.196.4.327.103.132.176.286.218.46.041.173.045.366.012.575a1.45 1.45 0 01-.19.543 1.204 1.204 0 01-.35.37 1.209 1.209 0 01-.48.183 1.923 1.923 0 01-.575-.006 1.799 1.799 0 01-.548-.17 1.185 1.185 0 01-.397-.322 1.172 1.172 0 01-.219-.46 1.437 1.437 0 01-.012-.575c.033-.21.097-.392.19-.544a1.188 1.188 0 01.83-.559c.09-.016.183-.023.279-.023zM90.854.263a1.62 1.62 0 01.425-.018l.15.018.065.012.05.017c.156.034.304.08.432.147.12.064.226.141.314.23l.085.098.026.043c.04.054.077.11.106.17l.054.14.032.106c.043.173.048.364.013.573l-.052.25-1.799 7.691c-.825 3.61-1.222 6.041-1.4 6.95l-.035.167-.155-.066a1.76 1.76 0 00-.226-.064l-.12-.023a1.756 1.756 0 00-.526-.008l.083-.66c.148-1.105.444-3.195.719-6.13l.703-8.239.037-.305c.025-.156.068-.297.126-.422l.067-.124c.028-.045.063-.082.094-.121l.063-.082.01-.009c.056-.057.115-.108.181-.153.14-.093.3-.156.478-.188zM68.647 14.607c-.392-1.086-.59-2.393-.59-3.884 0-1.49.198-2.797.59-3.883.393-1.089.94-1.99 1.642-2.7a6.585 6.585 0 012.47-1.583 8.884 8.884 0 013.046-.513c1.105 0 2.129.171 3.075.513.944.342 1.768.87 2.47 1.583.703.711 1.25 1.614 1.643 2.703.394 1.092.59 2.386.59 3.882s-.196 2.788-.59 3.88c-.393 1.09-.94 1.992-1.642 2.704a6.559 6.559 0 01-1.588 1.187c-.281.15-.575.284-.883.394-.946.343-1.97.515-3.075.515a8.854 8.854 0 01-3.046-.515 6.526 6.526 0 01-2.968-2.15 7.775 7.775 0 01-1.144-2.133zm14.8-11.02a9.192 9.192 0 00-2.41-1.542 10.603 10.603 0 00-.94-.365c-1.298-.435-2.73-.654-4.292-.654-1.54 0-2.96.22-4.26.654a9.702 9.702 0 00-.492.178 9.29 9.29 0 00-2.852 1.726 8.598 8.598 0 00-2.173 3.061c-.518 1.205-.776 2.58-.776 4.12 0 1.542.258 2.916.776 4.121.517 1.207 1.241 2.227 2.173 3.06.931.835 2.046 1.456 3.344 1.864 1.3.408 2.72.612 4.26.612 1.562 0 2.993-.204 4.291-.612.102-.032.201-.07.301-.102a9.141 9.141 0 002.377-1.225c.235-.17.46-.35.673-.542a8.632 8.632 0 002.172-3.058c.514-1.2.776-2.586.776-4.119 0-1.532-.262-2.918-.776-4.119a8.65 8.65 0 00-2.172-3.059zm-21.99 7.169c0 1.327-.16 2.475-.48 3.442-.324.968-.772 1.768-1.347 2.4A5.346 5.346 0 0157.608 18a6.825 6.825 0 01-2.516.455c-.89 0-1.721-.15-2.494-.455a5.334 5.334 0 01-2.022-1.404c-.575-.631-1.024-1.431-1.345-2.399-.322-.967-.483-2.115-.483-3.442s.161-2.475.483-3.444c.321-.967.77-1.767 1.345-2.398a5.318 5.318 0 012.022-1.404 6.751 6.751 0 012.494-.456c.903 0 1.742.153 2.516.456a5.33 5.33 0 012.022 1.404c.575.63 1.023 1.43 1.346 2.398.321.969.482 2.117.482 3.444zm2.776-.209c-.023-1.294-.239-2.456-.663-3.48a7.732 7.732 0 00-1.832-2.688c-.016-.015-.03-.033-.047-.049l-.002-.001c-.806-.746-1.77-1.315-2.893-1.704-1.124-.39-2.363-.584-3.713-.584-1.336 0-2.565.195-3.688.584-1.124.389-2.089.958-2.895 1.704a7.685 7.685 0 00-1.88 2.738c-.448 1.08-.672 2.309-.672 3.689 0 1.378.224 2.608.672 3.687.447 1.08 1.075 1.993 1.88 2.739.806.746 1.771 1.302 2.895 1.667 1.123.366 2.352.549 3.688.549 1.35 0 2.59-.183 3.713-.55 1.122-.364 2.087-.92 2.894-1.666.805-.746 1.432-1.66 1.88-2.74.447-1.078.672-2.308.672-3.686v-.002c0-.07-.008-.137-.01-.207zm-19.318 2.349V8.683c0-1.078.02-2.135.061-3.171.04-1.036.078-2.194.127-3.271-.444.126-.908.19-1.406.19-.492 0-.968-.064-1.412-.192l.001.018c.05 1.129.104 2.267.145 3.27a81.54 81.54 0 01.061 3.156l.003 1.462h-.005l-2.157.041a131.879 131.879 0 01-5.122 0l-2.167-.041.005-1.462c0-1.07.021-2.132.061-3.155.04-1.004.094-2.16.145-3.29-.441.128-.91.192-1.402.192-.5 0-.971-.062-1.415-.188.048 1.076.085 2.234.126 3.27.041 1.036.061 2.093.061 3.17v4.214c0 1.078-.02 2.14-.061 3.185a357.235 357.235 0 01-.135 3.107l.02-.012h.001l-.02.012c.443-.125.917-.19 1.416-.19.492 0 .958.064 1.402.191-.05-1.033-.096-2.114-.135-3.125a82.539 82.539 0 01-.061-3.168l-.003-1.587h.001a268.652 268.652 0 019.436 0h.006v1.587c0 1.071-.022 2.137-.061 3.168-.041 1.01-.09 2.092-.139 3.125a5.115 5.115 0 011.41-.191c.5 0 .965.065 1.41.191-.05-1.012-.095-2.065-.136-3.108a79.93 79.93 0 01-.061-3.185zm-23.765.221c-.558 0-2.5-.05-3.03-.075 1.373-3.453 2.847-7.212 3.03-7.944.183.732 1.65 4.49 3.024 7.944-.53.024-2.466.075-3.024.075zm1.139-10.48c-.06-.15-.115-.288-.154-.395a2.634 2.634 0 01-.99.184 2.675 2.675 0 01-.986-.183l.008.002-.009-.003c-.038.107-.095.245-.153.394-1.122 2.853-5.027 12.54-6.864 16.052-.079.152-.217.422-.262.506a5.223 5.223 0 011.416-.188c.487 0 .951.063 1.39.188l-.011-.01.012.01c.151-.402.996-2.5 1.979-4.967.422-.013.902-.03 1.322-.036.55-.008 1.598-.011 2.147-.011h.037c.535 0 1.591.004 2.142.011.42.007.894.024 1.315.035.983 2.467 1.829 4.568 1.98 4.968h.002l.013-.01h.002l-.015.01c.439-.125.906-.188 1.394-.188.496 0 .964.063 1.408.188-.041-.084-.18-.353-.26-.505-1.835-3.512-5.741-13.2-6.863-16.053z"/>
    <path d="M2.827.005l.001-.001.369.646c1.547 2.672 5.098 8.42 5.297 8.783l3.844-6.337A128.905 128.905 0 0014.158 0c.44.123.92.19 1.413.19l.345-.016.22-.018a5.35 5.35 0 00.686-.117l.157-.04-.318.489-.551.84c-.185.287-.41.648-.667 1.069L13.28 6.034a96.62 96.62 0 00-.39.667l-1.23 2.134-1.07 1.869-.902 1.587.001.815c0 .872.013 1.8.04 2.677l.052 1.65c.034 1.316.069 3.205.106 3.998a5.16 5.16 0 00-1.396-.19c-.484 0-.952.067-1.39.19l.017-.438c.038-1.091.073-3.024.106-4.125l.015-.443a84.73 84.73 0 00.06-2.66l.001-1.474-1.359-2.387-1.233-2.145-.8-1.383-2.234-3.763A53.689 53.689 0 00.634.953L.217.324C.148.217.079.112.008 0L.14.034c.17.042.346.08.527.107l.164.017.178.017.177.01c.075.002.149.007.229.007.105 0 .203-.003.297-.009L1.924.17a5.21 5.21 0 00.713-.116l.19-.049z"/>
  </g>
</svg>
