<svg viewBox="0 0 209 17" fill="none" xmlns="http://www.w3.org/2000/svg">
<path d="M4.7308 13.4651C4.7308 14.9781 5.13846 15.1462 6.86225 15.2162V15.7556H0V15.2162C1.4254 15.1462 1.83306 14.9781 1.83306 13.4651V3.57493C1.83306 2.05498 1.42541 1.88687 0.0378246 1.82383V1.27048H12.1534L12.2354 4.46448H11.6393C11.1273 2.84646 10.5746 2.33514 7.73781 2.33514H5.54051C4.8807 2.33514 4.7308 2.48224 4.7308 3.08461V7.66549H7.20688C9.46651 7.66549 9.95612 7.25922 10.2328 5.74627H10.7882V10.8665H10.2328C9.93441 9.15741 9.08056 8.73015 7.20688 8.73015H4.7308V13.4651ZM19.0185 13.4651C19.0185 14.9781 19.4205 15.1462 21.1499 15.2162V15.7556H13.9837V15.2162C15.7159 15.1462 16.1151 14.9781 16.1151 13.4651V3.57493C16.1151 2.05498 15.7159 1.88687 13.9837 1.82383V1.27048H21.1499V1.82383C19.4205 1.88687 19.0185 2.05498 19.0185 3.57493V13.4651ZM36.0974 3.98117C36.0974 2.57329 35.7115 1.99894 34.1327 1.82383V1.27048H39.2494V1.82383C37.6734 1.99894 37.2903 2.57329 37.2903 3.98117V16.1128H36.5653L26.6743 4.68161V13.0589C26.6743 14.4668 27.0547 15.0411 28.6335 15.2162V15.7556H23.5139V15.2162C25.0927 15.0411 25.4759 14.4668 25.4759 13.0589V3.30175C24.9863 2.44021 24.4084 2.03396 23.5139 1.82383V1.27048H27.4595L36.0974 11.2517V3.98117ZM43.8352 10.5653L46.0101 4.8287L48.1661 10.5653H43.8352ZM54.2186 15.7556V15.2162C53.1322 15.2372 52.8562 14.768 52.3011 13.4021L47.2033 0.927246H46.5029L41.1921 13.8504C40.8286 14.7469 40.3383 15.0201 39.4221 15.2162V15.7556H44.0268V15.2162C43.0252 15.2162 42.5355 14.9991 42.5355 14.2987C42.5355 13.7033 43.1982 12.0993 43.3649 11.63H48.6126C48.7821 12.0993 49.4854 13.7033 49.4854 14.2987C49.4854 14.9991 48.9544 15.2162 47.9507 15.2162V15.7556H54.2186ZM68.2709 3.98117C68.2709 2.57329 67.8885 1.99894 66.3121 1.82383V1.27048H71.4285V1.82383C69.8497 1.99894 69.4645 2.57329 69.4645 3.98117V16.1128H68.7416L58.8472 4.68161L58.8475 13.0589C58.8475 14.4668 59.2307 15.0411 60.8094 15.2162V15.7556H55.6899V15.2162C57.2687 15.0411 57.6546 14.4668 57.6546 13.0589V3.30175C57.1622 2.44021 56.5851 2.03396 55.6899 1.82383V1.27048H59.6355L68.2706 11.2517L68.2709 3.98117ZM86.5785 12.3514C85.0627 14.9361 83.079 16.1128 80.072 16.1128C75.3601 16.1128 72.5668 13.0169 72.5668 8.38695C72.5668 5.08787 75.1689 0.927246 80.2226 0.927246C81.7356 0.927246 83.8859 1.78179 84.2089 1.78179C84.6333 1.78179 84.7615 1.55064 85.1068 0.927246H85.829L86.1295 5.76729H85.4893C84.6333 3.52588 83.1232 1.90788 80.584 1.90788C77.1715 1.90788 75.6809 5.5992 75.6809 8.38695C75.6809 12.2954 77.3634 14.915 80.9693 14.915C83.7823 14.915 85.3394 12.8277 86.0013 11.9102L86.5785 12.3514ZM93.5997 13.4651C93.5997 14.9781 94.0074 15.1462 95.7333 15.2162V15.7556H88.5677V15.2162C90.2971 15.1462 90.702 14.9781 90.702 13.4651V3.57493C90.702 2.05498 90.2971 1.88687 88.5677 1.82383V1.27048H95.7333V1.82383C94.0074 1.88687 93.5997 2.05498 93.5997 3.57493V13.4651ZM101.671 10.5653L103.846 4.8287L106 10.5653H101.671ZM112.057 15.7556V15.2162C110.968 15.2372 110.692 14.768 110.139 13.4021L105.041 0.927246H104.339L99.0282 13.8504C98.6639 14.7469 98.1743 15.0201 97.2574 15.2162V15.7556H101.862V15.2162C100.861 15.2162 100.372 14.9991 100.372 14.2987C100.372 13.7033 101.034 12.0993 101.203 11.63H106.448C106.617 12.0993 107.321 13.7033 107.321 14.2987C107.321 14.9991 106.788 15.2162 105.786 15.2162V15.7556H112.057ZM113.324 15.7556V15.2162C114.711 15.1532 115.116 14.9781 115.116 13.4651V3.57493C115.116 2.05498 114.711 1.88687 113.324 1.82383V1.27048H120.019V1.82383C118.421 1.88687 118.014 2.05498 118.014 3.57493V13.7453C118.014 14.6209 118.271 14.915 119.891 14.915C122.493 14.915 124.028 14.4457 125.265 11.8891H125.82L124.84 15.7556H113.324Z" fill="#4D809E"/>
<path d="M143.655 13.4121C143.655 14.925 143.253 15.0931 141.606 15.1632V15.7025H148.6V15.1632C146.96 15.0931 146.556 14.925 146.556 13.4121V2.28204H148.348C150.031 2.28204 150.692 2.96146 151.158 4.9227H151.801L151.459 1.21736H138.752L138.41 4.9227H139.05C139.518 2.96146 140.181 2.28204 141.866 2.28204H143.655V13.4121Z" fill="#4D809E"/>
<path d="M160.458 15.1562C158.731 15.0931 158.324 14.925 158.324 13.4121V3.5148C158.324 2.00185 158.731 1.83375 160.458 1.77071V1.21036H153.292V1.77071C155.024 1.83375 155.426 2.00185 155.426 3.5148V13.4121C155.426 14.925 155.024 15.0931 153.292 15.1562V15.7025H160.458V15.1562Z" fill="#4D809E"/>
<path d="M180.669 1.21736H175.679L171.629 11.2757L167.771 1.21736H162.505V1.77071C164.039 1.77071 164.464 2.15596 164.464 3.15759V13.0058C164.464 14.4137 164.081 14.988 162.505 15.1632V15.7025H167.621V15.1632C166.042 14.988 165.66 14.4137 165.66 13.0058V3.22063H165.703L170.434 15.8846H171.096L175.936 3.22063H175.98V13.4121C175.98 14.925 175.572 15.0931 174.144 15.1632V15.7025H180.669V15.1632C179.283 15.0931 178.88 14.925 178.88 13.4121V3.5148C178.88 2.00185 179.283 1.83375 180.669 1.77071V1.21736Z" fill="#4D809E"/>
<path d="M182.727 15.1632V15.7025H195.179L196.159 11.8291H195.605C194.369 14.3927 192.832 14.862 190.233 14.862C187.674 14.862 187.42 14.5608 187.42 13.6922V8.67708H189.89C191.767 8.67708 192.618 9.10433 192.919 10.8064H193.474V5.69319H192.919C192.64 7.20615 192.15 7.61239 189.89 7.61239H187.42V3.02451C187.42 2.42913 187.565 2.28204 188.229 2.28204H190.424C193.258 2.28204 193.814 2.79335 194.328 4.41137H194.922L194.837 1.21736H182.727V1.77071C184.111 1.83375 184.516 2.00185 184.516 3.5148V13.4121C184.516 14.925 184.111 15.0931 182.727 15.1632Z" fill="#4D809E"/>
<path d="M198.602 11.1496H198.044L198.044 15.8846H198.815C198.897 15.4153 199.157 15.1632 199.538 15.1632C200.541 15.1632 201.201 16.0527 203.759 16.0527C206.365 16.0527 208.239 14.3016 208.24 12.0252C208.24 6.93298 200.731 6.8419 200.731 3.88604C200.731 2.89841 201.333 1.85476 202.95 1.85476C204.915 1.85476 206.405 3.38874 207.002 5.47606H207.558V0.874146H207.002C206.896 1.32243 206.641 1.63763 206.236 1.63763C205.273 1.63763 204.506 0.874146 202.331 0.874146C200.115 0.874146 198.175 2.58322 198.175 4.58648C198.175 8.71909 205.681 9.33548 205.681 12.6626C205.681 13.7973 205.018 15.0721 203.188 15.0721C201.054 15.0721 199.218 13.0689 198.602 11.1496Z" fill="#4D809E"/>
</svg>
